<svg width="500" height="500" xmlns="http://www.w3.org/2000/svg"><path d="M429.391 232.56h70A250 250 0 00267.439.61v70a180 180 0 01161.952 161.952zM232.56 70.609v-70A250 250 0 00.61 232.561h70A180 180 0 01232.561 70.609zM70.609 267.44h-70A250 250 0 00232.561 499.39v-70A180 180 0 0170.609 267.439zM267.44 429.391v70A250 250 0 00499.39 267.439h-70a180 180 0 01-161.952 161.952z" fill="#393940"/><path d="M312.543 171.673l42.426-42.427a160 160 0 00-209.938 0l42.426 42.427a100 100 0 01125.086 0zM171.673 187.457l-42.427-42.426a160 160 0 000 209.938l42.427-42.426a100 100 0 010-125.086zM187.457 328.327l-42.426 42.427a160 160 0 00209.938 0l-42.426-42.427a100 100 0 01-125.086 0z" fill="#e84c3b"/></svg>