<svg xmlns="http://www.w3.org/2000/svg" preserveAspectRatio="xMinYMax meet" class="Logo__SVG-sc-1e86at2-0 efhjNq" aria-label="Ciklum" viewBox="0 0 108 35"><path d="M53.5 20c-.2 0-.3.1-.4.2-.9.9-1.7 1.2-2.9 1.2-2.1 0-3.7-1.7-3.7-3.9s1.6-3.9 3.7-3.9c1.1 0 1.9.4 2.8 1.1.1.1.3.2.4.2.3 0 .6-.3.6-.6 0-.1-.1-.3-.2-.5-.8-.7-1.8-1.4-3.6-1.4-2.8 0-4.9 2.2-4.9 5.1v.1c0 2.9 2.1 5.1 4.9 5.1 1.5 0 2.6-.4 3.7-1.5.1-.1.2-.3.2-.4 0-.5-.3-.8-.6-.8zM58.7 12.4c-.3 0-.6.3-.6.6v8.7c0 .3.3.6.6.6s.6-.3.6-.6V13c0-.3-.3-.6-.6-.6zM68.1 16.9l3.4-3.4c.2-.2.2-.3.2-.4 0-.3-.3-.6-.6-.6-.2 0-.3.1-.4.2l-5.5 5.6v-5.2c0-.3-.3-.6-.6-.6s-.6.2-.6.6v8.7c0 .3.3.6.6.6s.6-.3.6-.6v-2l2.1-2.1 3.6 4.4c.1.2.3.2.5.2.3 0 .6-.3.6-.6 0-.2-.1-.3-.2-.4l-3.7-4.4zM82.1 21.2h-5V13c0-.3-.3-.6-.6-.6s-.6.3-.6.6v8.7c0 .3.3.6.6.6h5.6c.3 0 .6-.3.6-.6s-.3-.5-.6-.5zM93 12.4c-.3 0-.6.3-.6.6v5.2c0 2-1 3.1-2.9 3.1-1.8 0-2.9-1.2-2.9-3.2V13c0-.3-.3-.6-.6-.6s-.6.3-.6.6v5.2c0 2.6 1.6 4.3 4.1 4.3s4.1-1.7 4.1-4.4V13c0-.3-.3-.6-.6-.6zM106.5 12.5c-.3 0-.5.1-.6.3l-3.4 5-3.5-5.1c-.1-.1-.2-.3-.5-.3h-.1c-.3 0-.6.3-.6.6v8.7c0 .3.3.6.6.6s.6-.3.6-.6v-6.9l2.9 4.3c.1.2.3.3.5.3s.4-.1.5-.3l2.9-4.3v7c0 .3.3.6.6.6s.6-.3.6-.6v-8.7c.2-.4-.1-.6-.5-.6z"/><g><circle fill="#F0F0F0" cx="17.5" cy="17.5" r="17.5"/><path fill="#00AAF0" d="M17.9 25.5c-4.3.3-8.1-3-8.4-7.4-.3-3.8 2.1-7.1 5.5-8.2l-1-3.2C9.1 8.2 5.7 13 6.1 18.4c.4 6.2 5.8 11 12 10.5.9-.1 1.7-.2 2.5-.5l-1-3.2c-.5.1-1.1.2-1.7.3"/><path fill="#50468C" d="M12.1 22.8c2.9 2.9 7.6 2.9 10.4 0L20.8 21c-1.9 1.9-5 1.9-6.9 0-1.9-1.9-1.9-5.1 0-7l-1.7-1.8c-3 2.9-3 7.7-.1 10.6"/><path fill="#F06428" d="M25.6 25.9c-4.5 4.6-11.9 4.6-16.5 0-2.3-2.3-3.4-5.3-3.4-8.4 0-3 1.1-6 3.4-8.4 4.5-4.6 11.9-4.6 16.5 0L29 5.7C22.5-.9 12.3-1 5.7 5.7 2.4 9 .9 13.3.9 17.6c0 4.3 1.6 8.6 4.8 11.8 6.4 6.5 16.9 6.5 23.3 0l-3.4-3.5z"/></g></svg>