<svg baseProfile="tiny" xmlns="http://www.w3.org/2000/svg" viewBox="0 0 267.7 50"><path fill="#007385" d="M18.9 32.6c-.7 0-1.1.3-1.5.5-1.2.9-2.8 2.1-5.6 2.1s-6.6-.9-6.6-8.8c0-5.9 2.2-8.7 6.6-8.7 3.1 0 4.3 1.4 5.1 2.2.3.4.9.9 1.9.9 1.3 0 2.4-1.1 2.4-2.4 0-.7-.3-1.1-.5-1.5-.5-.7-3.2-4-8.8-4C4.2 12.9 0 17.7 0 26.4 0 35.2 4.2 40 11.8 40c4.8 0 7.6-2.3 8.6-3.1.7-.6 1-1.2 1-2-.1-1.2-1.2-2.3-2.5-2.3zM31.6 34.9c-.5 0-1.2 0-1.2-2.1V2.6c0-1.4-1.1-2.6-2.6-2.6-1.4 0-2.6 1.2-2.6 2.6v30.2c0 4.5 2.3 7.1 6.4 7.1 1.4 0 2.5-1.1 2.5-2.5s-1.1-2.5-2.5-2.5zM58.5 24.1c0-5.2-2.9-11.2-11-11.2-7.5 0-11.8 4.9-11.8 13.6C35.8 37.7 42.4 40 48 40c5.4 0 8.3-2.7 8.9-3.2.3-.3.8-.8.8-1.8 0-1.3-1.1-2.4-2.4-2.4-.7 0-1.1.2-1.5.5-1.4 1.1-3 2.1-5.8 2.1-4.2 0-6.8-2.6-7.1-6.9h14.5c3.1 0 3.1-2.7 3.1-4.2zm-5.1-.5H41c.5-3.8 2.8-5.9 6.5-5.9s5.7 1.9 5.9 5.9zM116 24.1c0-5.2-2.9-11.2-11-11.2-7.5 0-11.8 4.9-11.8 13.6 0 11.2 6.7 13.6 12.3 13.6 5.4 0 8.3-2.7 8.9-3.2.3-.3.8-.8.8-1.8 0-1.3-1.1-2.4-2.4-2.4-.7 0-1.1.2-1.5.5-1.4 1.1-3 2.1-5.8 2.1-4.2 0-6.8-2.6-7.1-6.9H113c3-.1 3-2.8 3-4.3zm-11-6.4c3.7 0 5.6 1.9 5.9 5.9H98.6c.5-3.8 2.8-5.9 6.4-5.9zM131.8 13c-2.6 0-4.9.9-6.5 2.4-.2-1.3-1.2-2.2-2.5-2.2-1.4 0-2.6 1.1-2.6 2.6v21.5c0 1.4 1.1 2.6 2.6 2.6s2.6-1.1 2.6-2.6V25.4c0-4.7 2.4-7.4 6.5-7.4 1.4 0 2.5-1.1 2.5-2.5s-1.2-2.5-2.6-2.5zM149.3 12.9c-2.6 0-4.8 1-6.3 2.2V2.6c0-1.4-1.1-2.6-2.6-2.6-1.4 0-2.6 1.1-2.6 2.6v26.2c0 7 4.3 11.3 11.2 11.3 7.5 0 11.7-4.8 11.7-13.6 0-11.3-6.2-13.6-11.4-13.6zm6.3 13.5c0 7.9-3.8 8.8-6.6 8.8-3.9 0-6.1-2.3-6.1-6.5v-7.1c.4-.8 2.2-4 6.1-4 4.5.1 6.6 3 6.6 8.8zM176.4 13c-2.6 0-4.9.9-6.5 2.4-.2-1.3-1.2-2.2-2.5-2.2-1.4 0-2.6 1.1-2.6 2.6v21.5c0 1.4 1.1 2.6 2.6 2.6s2.6-1.1 2.6-2.6V25.4c0-4.7 2.4-7.4 6.5-7.4 1.4 0 2.5-1.1 2.5-2.5s-1.2-2.5-2.6-2.5zM184.9 4.1c-1.9 0-2.9 1.1-2.9 3 0 1.7 1.1 2.9 2.9 2.9s2.9-1.1 2.9-2.9c0-1.9-1-3-2.9-3zM184.9 13.2c-1.4 0-2.6 1.1-2.6 2.6v21.5c0 1.4 1.1 2.6 2.6 2.6s2.6-1.1 2.6-2.6V15.8c0-1.5-1.2-2.6-2.6-2.6zM211.5 0c-1.4 0-2.6 1.1-2.6 2.6v12.5c-1.5-1.2-3.7-2.2-6.3-2.2-5.2 0-11.5 2.4-11.5 13.6 0 8.8 4.2 13.6 11.7 13.6 6.9 0 11.2-4.3 11.2-11.3V2.6c.1-1.5-1-2.6-2.5-2.6zM209 21.7v7.1c0 4.2-2.2 6.5-6.1 6.5-2.8 0-6.6-.9-6.6-8.8 0-5.9 2.2-8.7 6.6-8.7 3.9-.1 5.7 3.1 6.1 3.9zM264.5 32.6c-.7 0-1.1.2-1.5.5-1.4 1.1-3 2.1-5.8 2.1-4.2 0-6.8-2.6-7.1-6.9h14.5c3 0 3-2.8 3-4.3 0-5.2-2.9-11.2-11-11.2-7.5 0-11.8 4.9-11.8 13.6 0 11.2 6.7 13.6 12.3 13.6 5.4 0 8.3-2.7 8.9-3.2.3-.3.8-.8.8-1.8.1-1.3-1-2.4-2.3-2.4zm-1.9-9h-12.4c.5-3.8 2.8-5.9 6.5-5.9s5.6 1.9 5.9 5.9zM229.7 13c-7.6 0-11.8 4.8-11.8 13.6 0 8.7 4.2 13.5 11.8 13.5 2.3 0 4.6-.7 6.3-2v.9c0 5-3.5 6.1-6.5 6.1s-4.5-1.1-5.6-2.2c-.6-.6-1.2-.8-1.9-.8-1.4 0-2.5 1.1-2.5 2.5 0 .5.2 1 .5 1.5 2.1 2.6 5.5 4 9.5 4 7.3 0 11.7-4.1 11.7-11V24.3c-.1-7-4.5-11.3-11.5-11.3zm0 4.8c3.9 0 6.3 2.4 6.3 6.5v7.4c-.4.7-2.4 3.6-6.3 3.6-4.5 0-6.7-2.9-6.7-8.7 0-6 2.2-8.8 6.7-8.8z"/><path fill="#E66425" d="M61.2 15.2c-1 1-1 2.6 0 3.6l18.7 18.7c1 1 2.6 1 3.6 0s1-2.6 0-3.6L64.8 15.2c-1-1-2.6-1-3.6 0z"/><path fill="#F5891F" d="M89.3 14.4H63c-1.4 0-2.5 1.1-2.5 2.5v.1c0 .8.4 1.5.9 1.9l4.9 4.9c-1-1-1-2.6 0-3.6.5-.5 1.1-.7 1.8-.7H89.3c1.4 0 2.5-1.1 2.5-2.5s-1.1-2.6-2.5-2.6z"/></svg>