<svg xmlns="http://www.w3.org/2000/svg" width="535.593" height="196.151" viewBox="0 0 535.593 196.151"><path d="M468.86 41.932c-30.376 0-55 24.81-55 55.418 0 30.605 24.624 55.416 55 55.416s55-24.811 55-55.416c0-30.608-24.624-55.418-55-55.418m0 12.5c23.435 0 42.5 19.253 42.5 42.918s-19.065 42.916-42.5 42.916-42.5-19.251-42.5-42.916c0-23.665 19.065-42.918 42.5-42.918"/><path d="M421.358 130.035c-7.42 6.373-17.018 10.232-27.498 10.232-23.435 0-42.5-19.253-42.5-42.917 0-23.665 19.065-42.917 42.5-42.917 10.285 0 19.728 3.71 27.088 9.872v-15.18a54.407 54.407 0 00-27.088-7.192c-30.376 0-55 24.81-55 55.417 0 30.605 24.624 55.417 55 55.417a54.407 54.407 0 0027.498-7.432v-15.3zM209.065 129.854c-7.446 6.48-17.126 10.412-27.705 10.412-23.435 0-42.5-19.251-42.5-42.916 0-23.665 19.065-42.918 42.5-42.918 10.284 0 19.725 3.709 27.084 9.869V49.124a54.405 54.405 0 00-27.084-7.192c-30.375 0-55 24.81-55 55.418 0 30.605 24.625 55.416 55 55.416a54.42 54.42 0 0027.705-7.55v-15.362zM349.901 54.745h-60.937V43.807H349.9v10.938z"/><path d="M315.526 49.12h10.938v100.312h-10.938V49.12zM285.214 44.12h-11.25v75.312c0 11.512-10.864 20.877-24.219 20.877s-24.219-9.365-24.219-20.877V45.057h-11.25v74.375c0 17.743 15.88 32.127 35.47 32.127 19.59 0 35.468-14.384 35.468-32.127V44.12z"/><g><path d="M523.795 143.893h.41c1.21 0 2.092-.236 2.645-.706.555-.474.832-1.063.832-1.77 0-.733-.257-1.35-.77-1.85-.514-.498-1.17-.748-1.97-.748-.345 0-.728.073-1.147.218v4.856zm-3.23-5.674h5.263c1.319 0 2.322.298 3.014.891.69.593 1.036 1.314 1.036 2.157 0 .688-.234 1.295-.701 1.817-.47.52-1.244.923-2.324 1.204l2.849 4.054c.345.48.653.812.926.993.172.108.414.175.722.204v.45h-2.508l-4.01-5.51h-1.037v4.203c.055.3.184.516.39.652.204.136.612.205 1.22.205v.45H520.4v-.45c.454 0 .774-.06.962-.177a.982.982 0 00.402-.53c.035-.12.054-.51.054-1.17v-7.115c0-.67-.014-1.065-.04-1.184a.87.87 0 00-.349-.483c-.167-.113-.456-.17-.865-.17v-.49zm5.344-2.891c-1.481 0-2.926.381-4.336 1.142a8.2 8.2 0 00-3.3 3.263c-.791 1.411-1.186 2.884-1.186 4.419 0 1.525.387 2.987 1.165 4.385a8.29 8.29 0 003.267 3.267c1.4.78 2.864 1.171 4.39 1.171 1.528 0 2.994-.39 4.399-1.17a8.27 8.27 0 003.272-3.268c.778-1.398 1.167-2.86 1.167-4.385 0-1.535-.397-3.008-1.187-4.42a8.2 8.2 0 00-3.3-3.262c-1.41-.76-2.86-1.142-4.35-1.142m0-.845c1.627 0 3.214.416 4.76 1.247a8.935 8.935 0 013.62 3.573c.868 1.55 1.303 3.166 1.303 4.849 0 1.672-.428 3.277-1.283 4.815a9.038 9.038 0 01-3.586 3.578c-1.537.852-3.142 1.275-4.815 1.275-1.672 0-3.275-.423-4.806-1.275a9.05 9.05 0 01-3.581-3.578c-.854-1.538-1.282-3.143-1.282-4.815 0-1.683.435-3.3 1.303-4.85a8.92 8.92 0 013.621-3.572c1.545-.83 3.126-1.247 4.745-1.247"/></g><g><path d="M55.883 0l-5.398 9.233L100.97 95.56l-50.485 87.49 5.398 9.357 55.885-96.847L55.883 0z" fill="#005288"/><path d="M39.128 28.651L0 95.561l39.128 67.81 39.13-67.81-39.13-66.91z" fill="#005288"/><path d="M47.464 14.397l-5.315 9.089 42.15 72.076-42.15 73.043 5.315 9.21 47.465-82.253-47.465-81.165z" fill="#005288"/></g><g><path d="M131.44 166.674h-5.377V163h14.485v3.674h-5.377v22.478h-3.731v-22.478zM142.927 163h3.29v9.611c1.011-2.262 3.351-3.287 5.596-3.252 2.689 0 4.396.99 5.504 2.688 1.075 1.66 1.487 3.956 1.487 6.606v10.5h-3.32v-10.321c0-1.733-.287-3.253-.982-4.31-.759-1.063-1.898-1.699-3.605-1.699-1.74 0-2.941.743-3.638 1.768-.727 1.025-1.042 2.402-1.042 3.712v10.85h-3.29v-26.154zM176.81 177.843c-.159-2.544-2.436-5.407-5.694-5.336-3.351 0-5.533 2.72-5.692 5.336h11.386zm-11.449 2.863c.158 3.887 3.194 5.865 5.788 5.865 2.307 0 4.016-1.235 4.964-3.25h3.416c-.823 2.118-2.024 3.71-3.479 4.772a8.092 8.092 0 01-4.901 1.624c-5.63 0-9.109-5.054-9.109-10.141 0-5.514 3.858-10.217 9.076-10.217 2.467 0 4.713 1.027 6.357 2.829 2.023 2.295 2.878 5.301 2.592 8.518h-14.704zM189.784 163h3.795l4.618 20.463 4.585-20.464h2.815l4.65 20.498 4.554-20.498h3.793l-6.45 26.154h-3.448l-4.522-19.829-4.522 19.829h-3.543l-6.325-26.154zM222.376 179.575c0 3.817 2.593 6.679 5.883 6.679 3.289 0 5.882-2.862 5.882-6.714 0-3.852-2.593-6.716-5.882-6.716-3.29 0-5.883 2.864-5.883 6.716v.035zm-3.288-.072c0-5.125 3.383-10.144 9.17-10.144 5.788 0 9.172 5.019 9.172 10.181 0 5.16-3.384 10.142-9.171 10.142-5.788 0-9.171-4.982-9.171-10.142v-.037zM240.793 169.926h3.099v2.828c.981-2.262 2.785-3.358 5.125-3.395v3.677h-.221c-3.102 0-4.713 1.91-4.713 5.725v10.392h-3.29v-19.227zM251.378 163h3.29v26.154h-3.29V163zM261.328 179.54c.032 3.535 2.245 6.749 6.042 6.749 1.676 0 3.225-.778 4.3-2.014 1.107-1.238 1.74-2.934 1.676-4.841 0-1.91-.664-3.57-1.739-4.737-1.076-1.203-2.561-1.907-4.237-1.907-3.638 0-6.042 3.11-6.042 6.714v.036zm15.118 9.612h-3.164v-3.358c-.947 1.98-2.876 3.923-6.419 3.923-5.407 0-8.823-4.666-8.823-10.213 0-5.973 3.857-10.145 8.76-10.145 3.51 0 5.66 2.192 6.357 3.712V163h3.289v26.152zM282.68 163h2.973l-2.782 7.314h-2.561l2.37-7.315zM294.168 174.945c0-1.485-.821-2.616-2.498-2.581-1.613 0-2.5 1.201-2.467 2.474.062 1.52 1.296 2.227 3.131 2.79 2.624.816 5.503 1.666 5.598 5.797.062 3.748-2.72 6.291-6.135 6.291-2.72 0-6.105-1.728-6.262-6.112h3.257c.127 2.331 1.803 3.111 3.036 3.111 1.581 0 2.815-1.237 2.815-2.864-.033-1.907-1.33-2.543-4.396-3.675-2.404-.815-4.302-2.086-4.334-4.985 0-3.64 2.657-5.832 5.787-5.832 2.374 0 5.473 1.309 5.724 5.586h-3.256zM311.17 163h12.207v3.673h-8.476v7.635h8.35v3.641h-8.35v11.204h-3.731v-26.154zM326.406 169.926h3.29v19.228h-3.29v-19.228zm0-6.926h3.29v3.886h-3.29V163zM334.185 169.926h3.099v2.97c.823-1.98 2.752-3.572 5.82-3.537 5.503.072 6.957 4.524 6.957 8.518v11.276h-3.32v-10.427c0-3.464-1.202-5.937-4.555-5.903-3.226.035-4.711 2.296-4.711 5.62v10.71h-3.29v-19.227zM368.38 177.843c-.16-2.544-2.437-5.407-5.695-5.336-3.35 0-5.533 2.72-5.692 5.336h11.386zm-11.45 2.863c.158 3.887 3.194 5.865 5.788 5.865 2.307 0 4.016-1.235 4.965-3.25h3.415c-.821 2.118-2.024 3.71-3.479 4.772a8.092 8.092 0 01-4.901 1.624c-5.63 0-9.109-5.054-9.109-10.141 0-5.514 3.859-10.217 9.076-10.217 2.467 0 4.713 1.027 6.358 2.829 2.024 2.295 2.876 5.301 2.592 8.518H356.93zM382.552 174.945c0-1.485-.824-2.616-2.5-2.581-1.613 0-2.5 1.201-2.468 2.474.064 1.52 1.298 2.227 3.131 2.79 2.628.816 5.504 1.666 5.599 5.797.065 3.748-2.72 6.291-6.134 6.291-2.722 0-6.106-1.728-6.262-6.112h3.256c.128 2.331 1.804 3.111 3.036 3.111 1.583 0 2.815-1.237 2.815-2.864-.031-1.907-1.328-2.543-4.396-3.675-2.405-.815-4.302-2.086-4.332-4.985 0-3.64 2.656-5.832 5.787-5.832 2.373 0 5.47 1.309 5.724 5.586h-3.256zM391.37 172.79h-3.098v-2.864h3.098v-6.927h3.289v6.927h3.32v2.863h-3.32v16.364h-3.29v-16.364zM432.211 181.201c-1.455 4.771-5.789 8.446-11.101 8.446-7.053 0-12.239-6.183-12.239-13.606 0-7.175 4.965-13.537 12.209-13.537 6.292.033 10.024 4.983 11.161 8.587h-3.952c-.76-1.695-3.132-4.877-7.244-4.912-4.964 0-8.444 4.558-8.444 9.862 0 5.443 3.544 9.931 8.479 9.931 4.521 0 6.702-3.818 7.209-4.77h3.922zM451.04 189.153h-3.1v-2.97c-.822 1.98-2.751 3.57-5.817 3.534-5.536-.035-6.958-4.524-6.958-8.515v-11.277h3.289v10.427c0 3.465 1.203 5.937 4.586 5.937 3.227-.035 4.712-2.331 4.712-5.62v-10.744h3.288v19.228zM456.553 172.79h-3.097v-2.864h3.097v-6.927h3.289v6.927h3.321v2.863h-3.321v16.364h-3.289v-16.364zM465.555 163h3.289v26.154h-3.289V163zM486.824 177.843c-.16-2.544-2.436-5.407-5.695-5.336-3.351 0-5.532 2.72-5.69 5.336h11.385zm-11.449 2.863c.157 3.887 3.194 5.865 5.787 5.865 2.308 0 4.017-1.235 4.966-3.25h3.415c-.821 2.118-2.024 3.71-3.479 4.772a8.093 8.093 0 01-4.902 1.624c-5.63 0-9.11-5.054-9.11-10.141 0-5.514 3.86-10.217 9.077-10.217 2.468 0 4.714 1.027 6.359 2.829 2.024 2.295 2.876 5.301 2.592 8.518h-14.705zM493.316 169.926h3.1v2.828c.978-2.262 2.78-3.358 5.12-3.395v3.677h-.22c-3.098 0-4.712 1.91-4.712 5.725v10.392h-3.288v-19.227zM509.484 188.588l-6.579-18.663h3.543l4.743 14.068L516 169.925h3.541l-9.391 26.226h-3.51l2.845-7.563z"/></g></svg>