<svg xmlns="http://www.w3.org/2000/svg" viewBox="0 0 387.2 66.9"><path fill-rule="evenodd" clip-rule="evenodd" fill="#EB0029" d="M149 23.4c9.5 0 17.1 8.9 17.1 19.8S158.4 63 149 63c-9.5 0-17.1-8.9-17.1-19.8 0-11 7.6-19.8 17.1-19.8m0-3.9c-15.2 0-27.6 10.6-27.6 23.7s12.4 23.7 27.6 23.7c15.2 0 27.6-10.6 27.6-23.7S164.3 19.5 149 19.5z"/><path fill-rule="evenodd" clip-rule="evenodd" fill="#5C6670" d="M323.6 35.3c-2.6-7-8.7-12-15.8-12-9.5 0-17.1 8.9-17.1 19.8s7.7 19.8 17.1 19.8c7.2 0 15.9-3.1 19.5-9.6l1.3.3-1.7 8.4c-5.5 3-12.3 4.7-19.1 4.7-15.2 0-27.6-10.6-27.6-23.7s12.4-23.7 27.6-23.7c2.3 0 4.6.2 6.8.7 1.6.3 3.2.8 4.7 1.4.5.2.9.4 1.4.3.5 0 .6-.1.9-.5h1.7l2.8 13.3-2.5.8zM363.1 19.6h1.7v12.3h-2.1c-.4-2.9-1.8-5.2-4.2-6.8-5.8-4-17.8-3.8-17.8 3.7 0 1.9.8 3.6 2.4 5.2 1.6 1.6 3.5 2.2 8.9 4.7 6.3 2.9 10.6 4.8 12.7 6.9 8.2 8 .9 21.3-13.7 21.3-2.7 0-6.2-.6-10.4-1.7-3.5-.9-4.2-1.3-5.6 1.7h-1.7V52.2h2c0 3.4 1.5 6.1 4.3 8.1 2.9 2 6.2 3 10.1 3 6 0 10.3-2.6 11-6.1.3-1.7-.1-3.7-1.9-5.4-1.8-1.7-5.5-2.7-11.2-5.3-4.7-2.2-7.8-3.9-9.3-5.1-9.7-7.9-4.4-21.9 11.7-21.9 2.7 0 5.5.4 8.6 1.2 3.2.8 3.7 1.1 4.5-1.1M247.8 44.5V57c0 6.4 2.6 5.4 8 5.8h9.2c6.1 0 8.7-2.9 10.1-8.5l2.2.5-2.5 11h-45.3v-2.2c1.4-.1 3.4 0 5-.4 3.3-.8 3-4.6 3-7.4V31.5c0-2.7.3-6.5-3-7.4-1.6-.4-3.6-.4-5-.4v-2.2h43.3l2.8 13.3-2.5.6c-.9-2.4-2.2-4.6-3.8-6.4-2.5-2.8-4.5-4.5-8.3-4.6-1.1-.1-2.3 0-3.5 0h-.7c-5.2 0-9-.7-9 5.2v11.8h11.4c2 0 3.3-.4 4.1-1.1.7-.7 1.2-2.1 1.6-4.1h1.5v13.3h-1.5c-.6-2.2-1.3-3.6-2.1-4.2-.8-.5-2.6-.8-5.3-.8h-9.7z"/><path fill-rule="evenodd" clip-rule="evenodd" fill="#EB0029" d="M12.6 0c2.3 0 4.4.9 6 2.5C20 4 21 6.1 21 8.4c0 2.3-.9 4.4-2.5 6-1.5 1.5-3.6 2.5-6 2.5-2.3 0-4.4-.9-6-2.5C5 12.9 4 10.8 4 8.4c0-2.3.9-4.4 2.5-6C8.1.9 10.2 0 12.6 0"/><path fill-rule="evenodd" clip-rule="evenodd" fill="#5C6670" d="M180.5 21.5h-6.4v2.2h1.1c4.8 0 6.1 4 8 7.6L200 65.8h3.3l15.5-37.4c1.5-3.1 5.1-4.8 8.4-4.8v-2.2h-17.6v2.2h.7c5.9.2 2.8 5.7 1.4 9.2L204 51.3l-10.1-20.6c-3.1-6.4-5.6-9.2-13.4-9.2"/><path fill-rule="evenodd" clip-rule="evenodd" fill="#EB0029" d="M54 21.4h11.2c2.6 0 4.9 1 6.7 2.6l34.7 30.8V31.4c0-2.7.3-6.5-3-7.4-1.6-.4-3.6-.4-5-.4v-2.2h20.8v2.2c-1.4.1-3.4 0-5 .4-3.3.8-3 4.6-3 7.4v22c0 3.2.8 6.2 2.7 8.1 1.2 1.2 2.8 2 5.2 2v2.2h-11.6c-2.6 0-4.9-1-6.7-2.6L54 21.4zM96.9 65.8H85.7c-2.6 0-4.9-1-6.7-2.6L44.3 32.4v23.4c0 2.7-.3 6.5 3 7.4 1.6.4 3.6.4 5 .4v2.2H31.4v-2.2c1.4-.1 3.4 0 5-.4 3.3-.8 3-4.6 3-7.4v-22c0-3.2-.8-6.2-2.7-8.1-1.2-1.2-2.8-2.1-5.2-2.1v-2.2H43c2.6 0 4.9 1 6.7 2.6l47.2 41.8zM18.2 55.8c0 2.7-.3 6.5 3 7.4 1.6.4 3.6.4 5 .5v2.2H0v-2.2c1.4-.1 3.4 0 5-.5 3.3-.8 3-4.6 3-7.4V31.4c0-2.7.3-6.5-3-7.4-1.6-.4-3.6-.4-5-.5v-2.2h18.3l-.1 34.5z"/><path fill="#5C6670" d="M380.7 19.4c-1.5 0-2.8.6-3.8 1.6s-1.6 2.3-1.6 3.8.6 2.8 1.6 3.8 2.3 1.6 3.8 1.6 2.8-.6 3.8-1.6 1.6-2.3 1.6-3.8-.6-2.8-1.6-3.8-2.4-1.6-3.8-1.6m1.3 4c0-.3-.1-.5-.3-.6-.2-.1-.4-.2-.7-.2h-1.4v1.8h1.4c.3 0 .5-.1.7-.2.2-.3.3-.5.3-.8zm-.1 4.5l-1.1-2.6h-1.2v2.6h-1.1v-6.3h2.7c.3 0 .5 0 .8.1.2.1.4.2.6.4.2.2.3.3.4.6.1.2.1.5.1.8 0 .4-.1.8-.3 1.1-.2.3-.5.5-.9.7l1.2 2.8h-1.2zm-1.2-9.6c1.8 0 3.4.7 4.6 1.9 1.2 1.2 1.9 2.8 1.9 4.6 0 1.8-.7 3.4-1.9 4.6a6.42 6.42 0 01-4.6 1.9c-1.8 0-3.4-.7-4.6-1.9a6.42 6.42 0 01-1.9-4.6c0-1.8.7-3.4 1.9-4.6 1.1-1.2 2.8-1.9 4.6-1.9z"/></svg>