<svg version="1.1" id="Layer_1" xmlns="http://www.w3.org/2000/svg" x="0" y="0" viewBox="0 0 264 142" xml:space="preserve" preserveAspectRatio="xMinYMax meet"><style>.st0{fill:#004180}</style><path class="st0" d="M67.5 90h-26V52.1h9.7v29.2h16.2V90zM82.3 52.1v23.6c0 3.3 2.8 6.5 6.6 6.5 3.5 0 6.6-3.2 6.6-6.5V52.1h9.7v23.6c0 9.7-9.1 14.8-16.4 14.8s-16.3-4.9-16.3-14.8V52.1h9.8zM192.9 71.1c0 11.9-8.9 19.6-19.6 19.6-10.7 0-19.7-7.6-19.7-19.6 0-11.9 8.9-19.7 19.7-19.7 10.7-.1 19.6 7.9 19.6 19.7zM173.3 82c4.9 0 9.9-2.7 9.9-10.9 0-7.9-5-10.9-9.9-10.9-5.1 0-9.9 3.6-9.9 10.9 0 7.2 5.1 10.9 9.9 10.9zM224.8 60.5h-15.6v7.1h15.2v8.3h-15.2V90h-9.5V52.1h25.1v8.4zM263.1 52.1v8.3h-10.7V90h-9.7V60.4h-10.5v-8.3h30.9zM51.5 32.6l19.1-19.2 18.9 18.9V20.2L70.6 1.4l-19.1 19zM31.9 90l-19-19L32 52H19.9L.9 71l19 19zM89.5 109.8l-18.9 18.7-19.1-19v12l19.1 19.1 18.9-18.8zM134.9 82.3l7.6 7.7h12.1L141 76.3zM141 65.7L154.8 52h-12l-7.9 7.7zM109.2 52.1L128.1 71l-18.9 19h12.1l18.8-19-18.8-18.9z"/></svg>