<svg xmlns="http://www.w3.org/2000/svg" viewBox="0 0 264 142" preserveAspectRatio="xMinYMax meet"><path d="M67.5 90h-26V52.1h9.7v29.2h16.2V90zm14.8-37.9v23.6c0 3.3 2.8 6.5 6.6 6.5 3.5 0 6.6-3.2 6.6-6.5V52.1h9.7v23.6c0 9.7-9.1 14.8-16.4 14.8s-16.3-4.9-16.3-14.8V52.1h9.8zm110.6 19c0 11.9-8.9 19.6-19.6 19.6-10.7 0-19.7-7.6-19.7-19.6 0-11.9 8.9-19.7 19.7-19.7 10.7-.1 19.6 7.9 19.6 19.7zM173.3 82c4.9 0 9.9-2.7 9.9-10.9 0-7.9-5-10.9-9.9-10.9-5.1 0-9.9 3.6-9.9 10.9 0 7.2 5.1 10.9 9.9 10.9zm51.5-21.5h-15.6v7.1h15.2v8.3h-15.2V90h-9.5V52.1h25.1v8.4zm38.3-8.4v8.3h-10.7V90h-9.7V60.4h-10.5v-8.3h30.9zM51.5 32.6l19.1-19.2 18.9 18.9V20.2L70.6 1.4l-19.1 19zM31.9 90l-19-19L32 52H19.9L.9 71l19 19zm57.6 19.8l-18.9 18.7-19.1-19v12l19.1 19.1 18.9-18.8zm45.4-27.5l7.6 7.7h12.1L141 76.3zm6.1-16.6L154.8 52h-12l-7.9 7.7zm-31.8-13.6L128.1 71l-18.9 19h12.1l18.8-19-18.8-18.9z" fill="#004180"/></svg>