<svg xmlns="http://www.w3.org/2000/svg" viewBox="0 0 420 100" height="86" width="360"><defs><clipPath id="a" clipPathUnits="userSpaceOnUse"><path d="M0 841.89h595.275V0H0v841.89z"/></clipPath></defs><path d="M66.761 97.014l-.5-6.45 1.113-27.061 4.487 2.586-8.812-8.263-12.442 3.155.067-2.105-.2 6.314-19.788 23.811L8.011 67.978 7.936 61.9l11.775-5.2-8.55-4.25-.087-5.45 22.812-17.536 15.175 5.136-.262 4.4-1.9.452 12.2-2.352 3.8-6.362-4.7 1.314-4.813-11.602-.35-3.775 19.188-3.236 3.323 4.575 7.364-2.625 12.625 10.938-.175 4.6L80.15 39.24l.1.025-1.224 1.75 8.786 6.624-.275-3.563 19.913.19 7.1 27.6.112 4.823-12.375-1.274 2.4 12.05.024 6.424-37.949 3.125z" fill="#c0cbd0" fill-rule="evenodd"/><path d="M65.986 90.576l-.262-29.5 4.425-.236-8.588-7.99-14.3 3.527 3.588 2.488L30.31 82.053 7.786 61.977l11.15-10.249v-.015l-7.612-4.736 21.725-18.901L48.41 34.59l-2.6 3.2 12.075-2.275 3.85-8.95-3.412.873-4.913-10.797 17.725-4.175 3.225 4.46 7.313-2.549L95.46 26.316 80.724 33.84l-1.375-1.463-1.863 6.949 8.588 6.437-.238-3.46 21.475.812 7.463 28.838-13.814-.865 3.951 16.363-38.925 3.125z" fill="#134c5d" fill-rule="evenodd"/><path d="M32.936 27.878l15.938 6.648-2.663 3 11.3-2.312 3.863-8.373-3.213.873-5.037-11.213 18.25-4.248 2.812 4.46-2.601-.212-9.874 23.8-45.45 9.926-5.475-3.125 22.15-19.224z" fill="#f4c819" fill-rule="evenodd"/><g clip-path="url(#clipPath28)" transform="matrix(1.25 0 0 -1.25 -151.612 657.395)"><path d="M178.648 511.364l-7.66-18.581-34.54-7.548-3.17-.4-.049-1.501 9.429-13.208 2.26 1.868.07 1.741-8.45 9.65 33 7.5.47-.371c.35-.18.73-.28 1.14-.28l.73.18 25.47-21.5-18.77-3.859-.101-2.56.601-2.401 21.08 6.731 1.23 18.909-.26 1.171-1.31-.72-1.21-15.29-25.68 21.5.7 1.84.14-.689-.17-.862.26-.209.21 1.289-.19 1.131 6.07 15.959 9.029-5.571.872.673.029.958-9.91 5.59-1.32-1.14z" fill="url(#linearGradient36)"/></g><g clip-path="url(#a)" transform="matrix(1.25 0 0 -1.25 -151.612 657.395)"><path d="M134.638 482.854l-.64-.559-.86.899.03 1.762 1.47-2.102z" fill="#9da2a9" fill-rule="evenodd"/><path d="M133.278 484.834l10.61 13.17 1.67.51v-.94l-9.11-12.34 34.54 7.55 7.66 18.58-12.04-1.95-.27.7v.97l13.63 1.42-8.3-18.49-38.39-9.18z" fill="#c0aa23" fill-rule="evenodd"/><path d="M179.189 462.434l-.7 2.74 18.01 5.561-24.21 20.59-.91-.18c-.67 0-1.27.27-1.7.7l-.14.2-32.89-7.23 8.4-11.07-2.37-1.8-9.511 12.93 10.72 14.18 1.75-.37-9.08-12.07 32.43 6.97.18.89a2.397 2.397 0 002.21 1.47l.09-.03 6.82 16.18-11.73-1.91-.25 1.01 13.3 2.02 10.33-6.28-1.07-.81-9.04 5.69-6.66-16.73.41-.61c.12-.29.19-.6.19-.93l-.17-.86 24.17-20.03 1.3 14.83 2.13-.44-1.01-17.98-21-6.63z" fill="#fff" fill-rule="evenodd"/><path d="M174.078 453.456l-.21 23.6 3.54.189-6.87 6.39-11.44-2.82 2.87-1.99-16.43-18.551-18.02 16.06 6.87 6.31-1.06 2.39.92 1.22-.46.292-3.87 1.689 17.72 15.379 12.75-5.318-2.13-2.401 9.04 1.85 3.09 6.699-2.57-.7-4.03 8.972 14.6 3.398 2.09-3.34.22-.28.151-.108 5.78 2.029 11.03-9.551-11.79-6.02-1.1 1.17-1.49-5.558 6.87-5.15-.19 2.769 17.18-.65 5.97-23.071-11.052.692 3.161-13.09-31.14-2.5z" fill="none" stroke="#fff" stroke-width=".02" stroke-linejoin="round"/><path d="M221.577 497.649v-23.681h4.598v19.8h.073l4.306-19.8h4.853l4.44 19.8h.036v-19.8h4.597v23.68h-7.151l-4.21-18.658h-.06l-4.27 18.659h-7.212zM248.3 497.649v-23.681h18.015v4.074h-13.09v6.557h11.52v4.086h-11.52v4.89h12.566v4.074h-17.49zM274.95 478.041c2.02 3.37 2.41 6.145 2.41 12.237v3.296h6.456v-15.533h-8.866zm-2.226 19.607v-7.042c0-6.033-.487-9.195-2.676-12.564h-2.116v-9.061h4.597v4.988h13.928v-4.988h4.61v9.06h-2.324v19.608h-16.019zM298.413 497.649h-4.926v-23.681h5.28l9.657 16.869h.061v-16.87h4.925v23.682h-5.546l-9.427-16.505h-.024v16.505zM326.852 492.298h.074l3.223-9.354h-6.326l3.029 9.354zm-2.773 5.351l-8.417-23.68h5.194l1.665 4.888h8.71l1.532-4.889h5.353l-8.321 23.681h-5.716zM342.785 497.649v-13.673c0-5.12-.559-6.675-2.772-6.675-.658 0-1.18.097-1.473.195v-3.785c.852-.266 1.898-.364 3.005-.364 4.66 0 6.168 3.978 6.168 10.107v10.12h6.69v-19.606h4.924v23.68h-16.542zM367.296 485.815c0 6.617 3.758 8.28 6.434 8.28s6.422-1.663 6.422-8.28c0-6.631-3.746-8.295-6.422-8.295-2.676 0-6.434 1.664-6.434 8.295m-4.928 0c0-11.094 8.224-12.468 11.362-12.468 3.126 0 11.347 1.374 11.347 12.468 0 11.093-8.221 12.454-11.347 12.454-3.138 0-11.362-1.361-11.362-12.454M388.106 497.649v-23.681h4.928v19.607h11.945v4.074h-16.873zM412.349 497.649h-4.926v-23.681h5.279l9.657 16.869h.062v-16.87h4.925v23.682H421.8l-9.426-16.505h-.025v16.505zM445.032 487.31h-5.705c-2.579 0-3.857 1.34-3.857 3.297 0 1.276.95 2.968 3.468 2.968h6.094v-6.266zm4.926 10.34h-11.97c-4.573 0-7.443-3.456-7.443-7.214 0-3.746 2.675-5.863 5.352-6.749l-5.777-9.719h5.777l5.486 9.267h3.65v-9.267h4.925v23.681z" fill="#134c5d" fill-rule="evenodd"/></g></svg>