<svg width="98" height="36" xmlns="http://www.w3.org/2000/svg" preserveAspectRatio="xMinYMax meet"><style>.st1{fill:#4d4f54}</style><path fill="none" id="canvas_background" d="M-1-1H99v38H-1z"/><g><g id="svg_1"><path id="svg_2" d="M.25 1.95c0-.7.6-1.3 1.3-1.3h4.1c.7 0 1.9.1 2.6.3 0 0 1.1.2 1.9 1.4l9.8 15.3c.4.6 1 1.6 1.4 2.2 0 0 2 3.4 3.8 7.7-.9-4.7-1.2-6.8-1.2-9.6v-16c0-.7.6-1.3 1.3-1.3h4.8c.7 0 1.3.6 1.3 1.3v32c0 .7-.6 1.3-1.3 1.3h-4.1c-.7 0-1.9-.1-2.6-.3 0 0-1.1-.2-1.9-1.4l-9.8-15.3c-.4-.6-1-1.6-1.4-2.2 0 0-2-3.4-3.8-7.7.9 4.7 1.2 6.8 1.2 9.6v16.1c0 .7-.6 1.3-1.3 1.3h-4.8c-.7 0-1.3-.6-1.3-1.3V1.95z" fill="#f58220"/><path id="svg_3" d="M35.75 19.05c0-.7.6-1.3 1.3-1.3h12.5c.7 0 1.3.6 1.3 1.3v3.4c0 .7-.6 1.3-1.3 1.3h-12.4c-.7 0-1.3-.6-1.3-1.3v-3.4h-.1z" class="st1"/><path id="svg_4" d="M54.95 12.75c0-.7.6-1.3 1.3-1.3h4.8c.7 0 1.3.6 1.3 1.3v21.1c0 .7-.6 1.3-1.3 1.3h-4.8c-.7 0-1.3-.6-1.3-1.3v-21.1zm7.5-9.1c0 2.1-1.7 3.7-3.7 3.7s-3.7-1.7-3.7-3.7c0-2.1 1.7-3.7 3.7-3.7s3.7 1.7 3.7 3.7" class="st1"/><path id="svg_5" d="M64.55 35.25c2.5-4.4 6.1-10.2 9.2-15l.7-1.1c.4-.6.8-1.3 1-1.5.1-.2.1-.6 0-.8-.1-.2-.6-.9-1-1.5 0 0-1.8-2.6-2.7-4-1.6-2.4-3.7-5.8-4.7-7.6l-.7-1.1c-.4-.6-.8-1.3-.9-1.6-.1-.2.3-.4 1.1-.4h6.9c.7 0 1.4.2 1.6.5.1.3.5 1 .9 1.6 0 0 3.4 5.3 6.3 9.5 1.4 2 5.1 6.9 5.5 7.5 0 0 3.8 5.2 5.7 8.3 1.3 2 2.6 3.8 3.5 5.4.3.6.6 1 1.1 1.9h-8.3c-.7 0-1.6-.5-1.9-1.2 0 0-1.2-2.3-2.7-4.9-1.8-3.2-2.7-4.8-4.2-7.1l-.2.4c-.4.6-1 1.7-1.3 2.3 0 0-3.6 6.2-5.3 9.5-.3.5-1.1 1-1.8 1h-7.8v-.1z" class="st1"/><path id="svg_6" d="M83.25 10.05s2.8-4.7 4.9-8.6c.3-.5 1.1-.9 1.8-.9h6.1c.7 0 1.2.2 1.1.4-.1.2-.6.9-.9 1.6l-6.9 10.9-1.5 2.4-4.6-5.8" class="st1"/></g></g></svg>