<svg xmlns="http://www.w3.org/2000/svg" width="300" height="90" viewBox="0 0 300 90"><path d="M138.189 8.416v4.272h5.535V37.58h3.977V12.688h5.535V8.416M276.772 8.416h4.203v29.165h-4.203zM281.198 22.985l10.847-14.569h5.31l-11.506 14.569 11.293 14.595h-5.535M262.376 37.58h-15.047V8.416h15.047v4.018H251.53v8.801h10.846v3.775H251.53v8.546h10.846M217.223 37.58h-4.213V8.416h4.213v12.326h11.731V8.416h3.987V37.58h-3.987V25.01h-11.731M176.047 15.96c2.208-7.3 10.398-10.307 17.267-8.038 1.546.737 3.316 1.505 4.862 2.004V5.409c-8.627-4.029-20.358-3.281-25.68 5.53-5.534 8.281-2.869 20.603 6.421 25.12 4.873 2.772 13.725 2.523 18.599 0l.223-5.52c-4.649 3.261-11.069 4.518-15.942 1.511-5.087-3.525-6.645-7.041-6.645-13.338l.225-.738M124.688 23.997c1.546-1.506 2.208-3.764 2.208-6.023 0-2.762-.886-5.286-2.88-7.035-1.546-1.267-3.764-2.279-6.633-2.279-.447 0-.671-.244-.895-.244h-8.628V37.58h4.203V24.251l5.32 7.799 3.979 5.53h5.535l-7.967-11.07c2.206 0 4.201-1.011 5.758-2.513m-10.633-.254h-1.993V12.688h3.326c.438 0 1.323.239 1.994.239 1.323.27 2.432.509 3.541 1.018 1.322 1.002 1.77 2.523 1.77 4.029 0 1.75-.884 3.515-1.994 4.517-.885.494-1.994 1.002-3.317 1.251l-3.327.001zM93.687 16.962c-.662-1.511-1.985-3.261-3.541-4.528-1.11-1.256-3.094-2.762-4.65-3.51-1.77-.265-3.764-.763-5.534-.763v-.239c-1.771 0-3.979.493-5.749 1.241-1.557.509-3.327 1.776-4.649 3.032-1.109 1.506-2.442 3.255-3.103 5.021-.886 1.496-1.109 3.764-1.109 5.515 0 2.029.223 4.034 1.109 5.794.438 1.75 1.333 3.261 2.217 4.538 1.546 1.75 3.541 2.997 5.312 3.77 1.77.748 3.978 1.242 5.973 1.242 1.994 0 4.212-.494 5.982-1.242 1.771-.773 3.765-2.02 5.087-3.77 1.333-1.276 2.219-2.788 2.656-4.538.885-1.76 1.333-3.515 1.333-5.794-.001-1.989-.45-4.273-1.334-5.769M87.266 30.54c-1.77 2.02-4.649 3.261-7.304 3.261-1.323 0-3.094-.494-4.203-1.002-1.333-.239-2.655-1.521-3.327-2.258-1.098-.773-1.771-2.269-2.208-3.536-.223-1.241-.661-2.752-.661-4.273 0-1.242.438-3.007.885-4.273.438-1.241 1.11-2.498 2.208-3.007.671-1.012 1.995-2.014 3.327-2.523 1.099-.239 2.655-.732 3.979-.732v.239c1.333 0 2.655.494 3.988.494 1.323.509 2.432 1.511 3.541 2.793.886.987 1.995 1.989 2.219 3.245.438 1.028.884 2.523.884 3.765-.001 3.03-1.11 5.792-3.328 7.807zM52.735 12.688c-.662-1.267-1.771-2.258-2.656-3.017-1.109-.244-1.994-.748-3.102-1.012h-1.995c-.662 0-1.546-.244-2.208-.244H36.13V37.58h4.425V25.763h4.426c2.441 0 4.649-.753 6.207-2.269 1.546-1.5 2.868-3.77 2.868-6.277.001-1.496-.437-3.272-1.321-4.529m-4.426 8.292c-.886.509-1.994.763-3.327 1.013h-4.427v-9.559h3.103c.438 0 .886.254 1.323.254 1.109 0 2.218.239 3.327 1.013.661.737 1.546 2.02 1.546 3.515.001 1.75-.884 3.017-1.545 3.764z"/><path fill="#eb1e2f" d="M117.382 60.946l-37.421 2.258-34.979 2.015h-1.323l1.323 1.52 20.145 21.85 14.834-2.524 37.421-7.014L262.601 52.39"/><path d="M17.094 31.033c1.995-4.523-1.333-7.036-5.311-9.04-1.771-.25-4.649-2.269-6.42-3.536C.489 14.703.927 7.668 6.024 4.142c3.988-2.269 8.852-1.505 12.84.509v4.776c-2.655-2.523-9.737-4.537-11.517.245C4.478 16.214 15.1 17.974 18.64 20.98c5.535 3.525 4.874 11.817-.661 15.343-3.989 2.005-11.07 2.508-14.611-.773v-4.273c3.541 2.763 11.508 4.782 13.726-.244"/></svg>