<svg width="256" height="60" xmlns="http://www.w3.org/2000/svg" viewBox="0 0 256 60"><path fill="none" d="M-1-1h258v62H-1z"/><g><path fill="#7a5daa" d="M21.823 15.96c.149.149.297.149.446.297-.149 2.977 1.191 5.805 4.02 7.443 3.87 2.232 8.632.893 10.865-2.977.893-1.489 1.19-2.977 1.042-4.466a9.809 9.809 0 003.423-3.125c2.233-3.87.893-8.634-2.977-10.866-2.679-1.638-5.953-1.34-8.335.297-.149-.148-.298-.148-.447-.297-3.87-2.233-8.633-.893-10.865 2.977-2.382 3.572-1.042 8.484 2.828 10.717zm-.15-9.229c1.34-2.233 4.169-3.126 6.401-1.786 3.722 2.233 4.763-2.382 8.782 0 2.233 1.34 2.977 4.168 1.786 6.55-.893 1.637-2.679 2.083-3.274 3.274-.596 1.19-.149 2.828-1.19 4.465a4.824 4.824 0 01-6.401 1.787c-4.168-2.382-.596-5.21-4.466-7.74-2.232-1.489-2.977-4.317-1.637-6.55zM54.42 44.985c-.446-4.317-4.316-7.591-8.782-7.145-.149 0-.297 0-.446.149-1.489-2.53-4.466-4.019-7.591-3.721-4.317.446-7.592 4.316-6.996 8.782.149 1.637.893 3.126 1.786 4.316-.744 1.34-1.042 2.977-.893 4.615.446 4.316 4.316 7.442 8.782 6.996 3.126-.298 5.656-2.382 6.698-5.21h.595c4.02-.596 7.294-4.466 6.847-8.782zm-7.442 5.507c-4.317.447-2.382 4.763-7.145 5.21-2.53.298-4.912-1.637-5.21-4.168-.148-1.786.894-3.274.745-4.614-.149-1.34-1.489-2.382-1.637-4.317-.298-2.53 1.637-4.912 4.167-5.21 4.763-.446 3.573 3.87 8.038 3.573 2.68-.149 4.912 1.637 5.21 4.168.297 2.828-1.638 5.06-4.168 5.358zM29.265 39.031c-1.786-4.019-6.55-5.805-10.42-4.019-1.488.744-2.678 1.786-3.572 3.126-1.488-.298-3.125-.149-4.614.595-4.019 1.786-5.805 6.55-4.019 10.42 1.34 2.828 4.02 4.614 6.996 4.763 0 .149.149.297.149.446 1.786 4.02 6.55 5.805 10.42 4.02 4.018-1.787 5.804-6.401 4.018-10.42 0-.15-.149-.298-.298-.447 2.084-2.381 2.68-5.656 1.34-8.484zm-3.87 10.122c.893 2.381 0 5.21-2.381 6.251-2.382 1.042-5.21 0-6.252-2.381-1.786-4.02-5.21-.893-7.145-5.21-1.042-2.382 0-5.21 2.382-6.252 1.637-.744 3.423-.148 4.614-.744 1.19-.446 1.786-2.233 3.572-2.977 2.382-1.042 5.21 0 6.252 2.382 1.935 4.465-2.68 4.614-1.042 8.93zm-11.61-15.034l.298-.298c2.679 1.191 5.954.596 8.335-1.488 3.275-2.977 3.572-7.889.596-11.164-1.042-1.19-2.53-2.083-4.02-2.381-.148-1.489-.892-2.977-1.934-4.168-2.977-3.275-7.89-3.572-11.164-.595-2.381 2.084-3.126 5.21-2.381 8.037-.15.15-.298.298-.447.298-3.275 2.977-3.572 7.889-.595 11.164 2.977 3.274 8.037 3.572 11.312.595zm-8.484-9.377c3.274-2.977-.893-5.21 2.679-8.485 1.935-1.786 4.912-1.637 6.698.298 1.19 1.34 1.19 3.126 2.084 4.168.893.893 2.68 1.042 3.87 2.53 1.786 1.935 1.637 4.912-.298 6.698-3.572 3.126-5.21-1.042-8.633 1.787-2.084 1.637-4.912 1.637-6.698-.298-1.786-1.935-1.637-4.912.298-6.698z" class="st4"/><path fill="#7a5daa" d="M56.802 21.812c0-.148.149-.297.149-.446.893-4.317-1.786-8.484-6.103-9.377-4.317-.894-8.484 1.786-9.377 6.102 0 .15 0 .298-.15.447-2.827.744-5.209 2.977-5.804 6.103-.893 4.316 1.786 8.484 6.102 9.377 1.638.298 3.275.149 4.615-.447 1.042 1.042 2.381 1.935 4.019 2.233 4.316.893 8.484-1.786 9.377-6.103.744-3.125-.595-6.102-2.828-7.889zm-.298 7.145c-.595 2.53-3.126 4.168-5.656 3.721-1.786-.446-2.828-1.935-4.019-2.084-1.19-.297-2.828.745-4.614.298-2.53-.595-4.168-3.126-3.721-5.656 1.042-4.763 4.763-2.233 5.954-6.55.595-2.53 3.125-4.167 5.656-3.572 2.53.596 4.167 3.126 3.72 5.657-1.041 4.018 3.722 3.572 2.68 8.186z" class="st4"/><text font-weight="bold" font-family="Helvetica, Arial, sans-serif" font-size="24" y="27.844" x="70.5" stroke-width="0" stroke="#000">Web Sun Group</text><text font-family="Helvetica, Arial, sans-serif" font-size="21" y="49.844" x="70.094" stroke-opacity="null" stroke-width="0" stroke="#000" fill="#919191">Browse your future</text></g></svg>