<svg width="512" height="512" xmlns="http://www.w3.org/2000/svg"><path fill="none" d="M-1-1h514v514H-1z"/><g><path fill="#fff" d="M255.475 177.003l-.168.153-.342.638-.168.161-.51.954-.176.153-.51.952-.167.162-.342.639-.168.153-.51.952-.176.162-.51.953-.166.162-.51.952-.166.153-.344.639-.166.162-.51.952-.177.153-.51.962-.167.153-.51.952-.177.162-.332.639-.178.153-.51.952-.166.162-.51.953-.166.162-.344.629-.177.161-.51.954-.166.161-.51.953-.166.153-.51.953-.176.162-.334.638-.176.153-.511.953-.167.162-.51.952-.176.163-.51.952-.167.162-.342.629-.168.161-.51.954-.165.161-.51.954-.177.153-.334.638-.176.161-.51.961-.166.154-.51.953-.177.161-.51.952-.167.163-.343.63-.167.16-.51.953-.166.162-.51.953-.177.153-.51.954-.166.161-.344.638-.166.153-.51.962-.176.152-.51.954-.167.161-.343.638-.167.153-.51.953-.165.162-.512.952-.176.163-.51.952-.197.111-.344.638-.166.161-.51.954-.177.153-.51.952-.166.163-.51.952-.167.162-.343.63-.177.162-.51.952-.167.162-.51.952-.166.161-.343.63-.167.162-.51.953-.177.161-.51.954-.114.195-.51.954-.176.161-.334.638-.176.153-.51.953-.166.162-.51.952-.167.162-.572.97-.177.153-.333.638-.177.161-.51.954-.167.153-.51.952-.177.162-.332.639-.178.153-.51.96-.166.154-.51.953-.166.162-.51.952-.177.163-.333.63-.177.16-.51.953-.166.163-.51.952-.178.153-.51.952-.165.163-.344.638-.165.153-.51.952-.168.163-.51.952-.176.162-.343.629-.167.162-.51.953-.166.162-.511.953-.176.162-.51.952-.166.153-.344.638-.166.162-.51.953-.167.153-.52.953-.167.162-.51.952-.166.162-.343.629-.167.163-.51.952-.176.161-.51.954-.167.153-.343.638-.167.161-.51.953-.176.153-.51.953-.167.162-.51.953-.166.162-.343.637-.166.154-.51.952-.178.161-.51.954-.166.161-.51.954-.177.153-.333.638-.177.161-.51.953-.166.153-.51.953-.166.162-.344.639-.166.153-.51.952-.177.162-.51.952-.167.161-.51.954-.177.153-.332.639-.178.161-.51.953-.166.161-.51.953-.166.153-.51.953-.176.162-.345.639-.165.153-.51.952-.167.161-.51.953-.176.161-.334.63-.176.162-.51.954-.168.161-.51.953-.165.153-.52.952-.167.162-.343.638-.167.154-.508.952-.168.163-.51.952-.176.161-.51.953-.167.161-.343.63-.167.162-.51.954-.176.161-.51.953-.166.153-.344.637-.166.162-.51.953-.167.154-.51.952-.177.163-.51.952-.166.161-.343.63-.167.161-.51.954-.177.161-.51.954-.166.153-.51.952-.166.162-.344.637-.166.153-.51.962-.177.153-.51.954-.167.161-.343.638-.167.153-.51.953-.176.161-.51.954-.167.161-.51.954-.166.153-.344.637-.166.162-.52.952-.167.153-.51.953-.165.162-.51.954-.083.178-.333.63-.177.161-.53.91-.167.162-.511.953-.165.162-.344.629-.177.162-.51.953-.166.162-.51.952-.167.153-.51.954-.177.161-.332.638-.178.154-.51.952-.166.162-.51.952-.177.162-.51.953-.166.153-.343.638-.167.162-.51.953-.166.153-.51.952-.178.162-.332.639-.177.152-.51.962-.165.153-.51.953-.178.162-.51.952-.167.162-.342.629-.168.163-.51.952-.166.161-.51.954-.177.153-.51.952-.165.162-.344.639-.166.152-.51.953-.177.162-.51.953-.167.162-.343.629-.167.162 160.25.161.168.153v.323h.176v.315h.167l.167.161v.315h.176v.324h.166v.323h.167l.177.153v.323h.166v.316h.167v.323h.177l.166.153v.324h.167v.314h.177l.166.162v.314h.167v.315h.103v.323h.168l.176.153v.324h.167v.315h.165v.313h.178l.167.163v.315h.165v.324h.178v.315h.166l.166.161v.315h.178v.314h.208l.166.162v.29h.178v.322h.165v.315h.167l.178.161v.315h.186v.315h.167v.323h.176l.167.153v.323h.167v.324h.176v.315h.188l.176.161v.315h.167v.323h.167l.176.154v.323h.167v.315h.166v.315h.174l.168.161v.315h.166v.323h.177v.314h.165l.168.162v.315h.177v.314h.165l.168.162v.316h.176v.323h.166v.314h.168l.176.162v.314h.166v.325h.177v.314h.167l.166.162v.29h.177v.314h.166v.323h.167l.177.153v.323h.166v.315h.167l.177.161v.315h.093v.314h.166v.333h.177l.167.153v.323h.166v.375h.177v.315h.187l.166.161v.315h.178v.323h.166v.315h.166l.178.161v.315h.186v.316h.178l.166.161v.315h.166v.323h.177v.314h.167l.166.162v.315h.177v.314h.167v.323h.166l.177.153v.323h.167v.315h.208l.176.162v.315h.167v.315h.167v.323h.177l.167.153v.298h.166v.316h.177v.322h.167l.166.154v.323h.177v.315h.166v.272h.178l.166.162v.314h.166v.374h.176l.168.153v.324h.165v.315h.177v.313h.168l.165.163v.315h.177v.323h.167v.314h.166l.177.162v.316h.072v.314h.168v.323h.176l.168.153v.323h.165v.315h.177l.167.162v.314h.166v.315h.177v.323h.166l.177.153v.323h.167v.316h.208v.315h.176l.167.161v.298h.166v.323h.177l.166.153v.323h.187v.315h.178v.316h.166l.167.161v.315h.178v.323h.165v.324h.188l.176.162v.314h.167v.315h.166v.323h.177l.167.161v.315h.167v.315h.177l.165.161v.315h.177v.323h.168v.314h.165l.177.163v.315h.166v.314h.167v.323h.177l.166.154v.324h.167v.314h.177v.315h.166l.167.162v.314h.177v.323h.166l.167.153v.323h.177v.29h.166v.314h.166l.178.162v.375h.166v.323h.177v.314h.167l.166.162v.315h.176v.314h.167l.167.162v.314h.177v.325h.166v.314h.114l.177.163v.315h.166v.313h.168v.324h.176l.166.153v.323h.188v.315h.176v.315h.168l.166.161v.315h.176v.323h.168l.165.154v.322h.177v.316h.166v.323h.178l.167.153v.323h.165v.315h.209v.314h.166l.166.162v.315h.178v.247h.166v.314h.166l.178.162v.375h.166v.314h.166l.177.162v.314h.167v.324h.166v.314h.177l.167.162v.314h.166v.316h.176v.332h.168l.165.153v.323h.177v.316h.168l.176.161v.315h.166v.314h.166v.323h.177l.167.154v.323h.083v.314h.177v.315h.167l.166.161v.315h.177v.323h.166v.315h.187l.177.161v.316h.167v.315h.166l.177.161v.315h.167v.323h.187v.315h.177l.166.162v.314h.166v.299h.178v.323h.166l.177.153v.323h.167v.314h.166v.324h.177l.166.153v.324h.167v.315h.208l.166.161v.315h.167v.314h.176v.323h.166l.168.155v.323h.196v.314h.168v.315h.166l.178.161v.315h.165v.323h.167l.178.153v.323h.165v.315h.167v.315h.176l.167.161v.29h.177v.324h.166v.314h.166l.178.162v.314h.166v.315h.168v.324h.176l.166.152v.324h.166v.324h.177l.167.161v.315h.166v.314h.177v.323h.167l.166.153v.324h.177v.314h.167v.315h.166l.177.163v.313h.167v.324h.103v.315h.177l.167.163v.314h.177v.314h.166l.167.162v.323h.187v.315h.166v.315h.167l.176.161v.315h.167v.323h.166v.314h.198l.167.162v.29h.166v.314h.177l.166.161v.375h.168v.325h.196v.313h.168l.166.163v.314h.176v.315h.168v.272h.176l.166.154v.323h.167v.373h.176v.315h.167l.166.161v.316h.177v.323h.168l.165.153v.324h.177v.314h.167v.315h.166l.177.161v.315h.167v.324h.166v.315h.177l.166.161v.315h.167v.315h.177v.323h.166l.167.154v.323h.177v.315h.166l.177.161v.315h.167v.237h.166v.325h.104l.166.153v.373h.167v.315h.177v.324h.166l.166.152v.324h.198v.315h.166v.271H19.354l-.177.162-.333.639-.177.153-.51.953-.167.162-.51.952-.166.162-.52.952-.166.153-.344.639-.166.161-.552.98-.166.152-.51.953-.177.161-.51.954-.166.161-.51.952-.167.154-.343.638-.177.162-.51.952-.167.162-.51.953-.165.153-.51.953-.177.161-.438.954-.166.161-.343.63-.166.161-.51.954-.177.161-.51.952-.167.154-.51.953-.166.162-.51.952-.177.161-.333.63-.176.162-.51.953-.167.161-.51.954-.177.153-.51.96-.166.155-.51.952-.166.162-.344.637-.166.153-.51.954-.177.162-.5.95-.166.161-.51.953-.177.154-.51.952-.166.161-.343.64-.167.152 433.634.162v-.315h-.176v-.323h-.166v-.314l-.166-.163h-.178v-.315h-.166v-.271h-.177v-.323l-.166-.153h-.167v-.375h-.177v-.305h-.166v-.315l-.167-.161h-.177v-.315h-.166v-.323l-.167-.154h-.177v-.322h-.166v-.316h-.167v-.331l-.177-.162h-.166v-.316h-.166v-.322h-.178v-.315l-.166-.162h-.165v-.315h-.177v-.323l-.167-.153h-.167v-.323h-.177v-.314h-.168v-.315l-.176-.162h-.168v-.314h-.166v-.324h-.176v-.315l-.167-.162h-.166v-.314h-.208v-.315h-.166v-.323l-.167-.154h-.177V454h-.166v-.316l-.167-.161h-.197v-.315h-.168v-.29h-.165v-.322l-.177-.153h-.167v-.324h-.166v-.314h-.198v-.315l-.166-.161h-.166v-.315h-.178v-.324l-.167-.153h-.176v-.323h-.167v-.315h-.167v-.315l-.176-.161h-.166v-.315h-.167v-.323h-.177v-.316l-.166-.161h-.167v-.315h-.177v-.314h-.166v-.323l-.167-.154h-.177v-.323h-.166v-.314l-.167-.162h-.177v-.291h-.166v-.315h-.166v-.323l-.178-.153h-.166v-.323h-.177v-.315h-.167v-.323l-.166-.153h-.177v-.323h-.165v-.323l-.168-.163h-.103v-.315h-.167v-.314h-.166v-.323l-.177-.153h-.167v-.323h-.166v-.316h-.198v-.315l-.166-.161h-.166v-.315h-.178v-.323h-.166v-.315l-.166-.161h-.198v-.315h-.168v-.314l-.166-.162h-.177v-.315h-.167v-.323h-.177v-.314l-.166-.162h-.166v-.316h-.178v-.314h-.166v-.323l-.166-.153h-.178v-.298h-.207v-.315l-.166-.163h-.177v-.373h-.168v-.315h-.165v-.323l-.177-.154h-.167v-.322h-.166v-.316h-.177v-.271l-.167-.163h-.166v-.315h-.177v-.373h-.167v-.315l-.167-.161h-.176v-.315h-.166v-.315l-.178-.161h-.166v-.315h-.166v-.324h-.178v-.315l-.166-.161h-.166v-.315h-.177v-.323h-.167v-.314l-.166-.162h-.083v-.315h-.167v-.315l-.166-.162h-.177v-.315h-.167v-.323h-.166v-.314l-.177-.162h-.166v-.314h-.167v-.315h-.177v-.323l-.166-.153h-.167v-.298h-.218v-.316h-.166v-.313l-.177-.163h-.167v-.315h-.166v-.323l-.177-.153h-.187v-.323h-.168v-.314h-.176v-.336l-.166-.161h-.166v-.315h-.178v-.323h-.188v-.314l-.165-.162h-.177v-.316h-.166v-.314l-.168-.162h-.176v-.314h-.166v-.324h-.168v-.314l-.176-.162h-.166v-.314h-.168v-.315h-.176v-.323l-.166-.153h-.177v-.324h-.167v-.315h-.166v-.323l-.177-.154h-.167v-.322h-.166v-.316l-.177-.162h-.167v-.314h-.166v-.29h-.177v-.323l-.166-.154h-.167v-.322h-.177v-.316h-.166v-.314l-.167-.162h-.176v-.314h-.167v-.323l-.167-.153h-.103v-.324h-.167v-.314h-.178v-.315l-.166-.161h-.167v-.315h-.177v-.324h-.187v-.315l-.166-.161h-.177v-.316h-.167v-.315h-.166v-.323l-.177-.153h-.187v-.323h-.166v-.315l-.178-.161h-.166v-.29h-.166v-.314h-.178v-.324l-.188-.211h-.165v-.325h-.177v-.314h-.166v-.315l-.167-.163h-.177v-.314h-.187v-.271l-.177-.154h-.166v-.324h-.167v-.373h-.177v-.315l-.166-.163h-.168v-.323h-.176v-.315h-.166v-.314l-.166-.162h-.178v-.314h-.166v-.323h-.166v-.316l-.177-.162h-.167v-.314h-.169v-.315l-.177-.161h-.166v-.315h-.167v-.323h-.177v-.315l-.166-.161h-.166v-.315h-.178v-.315h-.166v-.323l-.177-.153h-.072v-.323h-.167v-.314l-.177-.163h-.166v-.29h-.167v-.314h-.177v-.323l-.166-.153h-.167v-.323h-.176v-.315h-.167v-.272l-.167-.163h-.176v-.315h-.208v-.375h-.166v-.314l-.178-.162h-.166v-.314h-.166v-.315l-.178-.162h-.186v-.314h-.167v-.324h-.177v-.315l-.166-.162h-.178v-.314h-.166v-.315h-.187v-.323l-.177-.153h-.166v-.323h-.167v-.316l-.177-.16h-.166v-.316h-.168v-.323h-.177v-.315l-.166-.161h-.167v-.315h-.177v-.314h-.166v-.325l-.167-.153h-.177v-.298h-.166v-.314h-.166v-.315l-.178-.161h-.166v-.315h-.166v-.323l-.178-.153h-.166v-.324h-.177v-.315h-.166v-.331l-.167-.162h-.177v-.315h-.166v-.323h-.167v-.314l-.177-.162h-.166v-.314h-.167v-.315l-.177-.162h-.094v-.315h-.165v-.324h-.177v-.314l-.167-.162h-.166v-.314h-.177v-.315h-.188v-.324l-.166-.153h-.176v-.323h-.168v-.315h-.176v-.315l-.166-.161h-.187v-.316h-.177v-.322l-.168-.154h-.166v-.324h-.178v-.288h-.165v-.315l-.166-.163h-.177v-.314h-.167v-.324h-.166v-.314l-.177-.163h-.167v-.314h-.208v-.324l-.177-.153h-.165v-.323h-.168v-.314h-.177v-.315l-.165-.161h-.168v-.315h-.177v-.323h-.166v-.315l-.176-.161h-.168v-.315h-.166v-.315h-.178v-.323l-.165-.154h-.167v-.324h-.177v-.315l-.166-.161h-.167v-.288h-.176v-.316h-.166v-.323l-.168-.153h-.176v-.323h-.168v-.315h-.165v-.315l-.177-.162h-.072v-.314h-.169v-.333l-.176-.153h-.166v-.323h-.168v-.375h-.176v-.314l-.166-.162h-.177v-.314h-.167v-.323h-.166v-.315l-.177-.162h-.167v-.314h-.208v-.315h-.177v-.333l-.167-.151h-.166v-.325h-.177v-.314l-.167-.162h-.187v-.315h-.177v-.323h-.166v-.314l-.166-.162h-.178v-.317h-.166v-.314h-.187v-.323l-.177-.154h-.166v-.323h-.167v-.314l-.177-.162h-.166v-.28h-.187v-.315h-.168v-.323l-.165-.153h-.177v-.323h-.168v-.315h-.165v-.274l-.178-.161h-.165v-.315h-.168v-.374h-.177v-.314l-.166-.162h-.167v-.316h-.177v-.314l-.166-.162h-.167v-.314h-.177v-.323h-.166v-.315l-.167-.162h-.176v-.314h-.167v-.316h-.167v-.323l-.176-.153h-.167v-.323h-.176v-.315l-.166-.161h-.084v-.315h-.177v-.316h-.166v-.323l-.167-.153h-.177v-.323h-.166v-.315h-.188v-.314l-.176-.162h-.166v-.298h-.168v-.323h-.176v-.315l-.166-.162h-.187v-.315h-.177v-.323l-.168-.153h-.165v-.323h-.177v-.314h-.167v-.325l-.177-.161h-.166v-.315h-.167v-.323h-.177v-.315l-.166-.161h-.166v-.315h-.209v-.314l-.166-.162h-.167v-.314h-.177v-.324h-.166v-.315l-.168-.162h-.176v-.314h-.167v-.315h-.166v-.323l-.177-.153h-.167v-.323h-.165v-.315h-.178v-.315l-.166-.161h-.166v-.315h-.178v-.324l-.166-.153h-.177v-.323h-.166v-.29h-.167v-.314l-.177-.162h-.166v-.375h-.167v-.324h-.177v-.314l-.166-.162h-.083v-.315h-.178v-.314l-.166-.162h-.166v-.314h-.178v-.325h-.167v-.314l-.165-.162h-.177v-.314h-.167v-.315h-.166v-.324l-.177-.162h-.167v-.314h-.208v-.315h-.176v-.323l-.168-.153h-.177v-.323h-.165v-.315l-.168-.161h-.187v-.315h-.166v-.315h-.166v-.324l-.177-.153h-.167v-.323h-.166v-.316h-.198v-.313l-.166-.163h-.167v-.315h-.177v-.246l-.166-.153h-.166v-.323h-.198v-.375h-.167v-.314l-.166-.162h-.177v-.314h-.166v-.325h-.167v-.313l-.177-.163h-.166v-.314h-.178v-.315h-.166v-.332l-.166-.153h-.177v-.323h-.167v-.314l-.166-.162h-.177v-.314h-.167v-.315h-.166v-.323l-.177-.153h-.167v-.325h-.166v-.314h-.177v-.315l-.167-.161h-.166v-.315h-.177v-.323l-.165-.153h-.085v-.29h-.176v-.314h-.166v-.324l-.166-.153h-.177v-.325h-.167v-.314h-.188v-.315l-.166-.161h-.167v-.315h-.177v-.333h-.165v-.313l-.168-.163h-.197v-.315h-.167v-.314l-.166-.162h-.176v-.314h-.167v-.325h-.167v-.314l-.177-.162h-.166v-.314h-.167v-.315h-.178v-.323l-.165-.153h-.168v-.323h-.218v-.315l-.166-.161h-.176v-.315h-.168v-.317h-.166v-.322l-.176-.154h-.168v-.323h-.166v-.315h-.177v-.314l-.167-.162h-.166v-.298h-.177v-.323h-.167v-.314l-.166-.162h-.177v-.315h-.167v-.315l-.166-.162h-.177v-.315h-.165v-.323h-.168v-.323l-.176-.161h-.166v-.315h-.168v-.314h-.178v-.325l-.166-.152h-.176v-.324h-.168v-.314l-.166-.162h-.178v-.315h-.165v-.324h-.167v-.313l-.177-.163h-.166v-.315h-.167v-.314h-.177v-.325l-.166-.151h-.167v-.325h-.124v-.314h-.167v-.315l-.166-.161h-.177v-.315h-.167v-.323l-.166-.153h-.198v-.325h-.166v-.289h-.166v-.314l-.177-.162h-.167v-.375h-.177v-.323h-.187v-.315l-.167-.161h-.176v-.315h-.167v-.314l-.167-.162-121.28-.11.176-.153.344-.639.166-.161.51-.954.167-.153.51-.952.177-.162.51-.952.166-.161.344-.63.166-.162.51-.954.166-.161.52-.953.166-.161.51-.953.168-.153.342-.639.166-.161.51-.954.177-.153.51-.952.167-.161.51-.953.166-.161.343-.63.178-.162.51-.954.166-.161.51-.953.166-.153.51-.952.177-.162.333-.638.177-.154.51-.962.166-.153.51-.952.176-.161.511-.953.167-.161.51-.954.166-.153.344-.639.166-.161.51-.953.144-.153.51-.952.168-.162.51-.953.176-.162.334-.63.176-.162.51-.952.167-.161.572-.97.166-.154.51-.952.177-.162.333-.637.177-.153.51-.962.166-.154.51-.953.177-.162.51-.952.167-.161.343-.63.166-.161.51-.954.167-.161.51-.954.177-.153.51-.952.166-.162.29-.68.168-.154.51-.953.176-.162.51-.952.168-.162.51-.952.165-.153.51-.954.177-.161.343-.639.167-.162.51-.952.166-.153.51-.952.177-.162.51-.953.166-.162.344-.63.166-.162.51-.952.166-.162.52-.952.168-.153.51-.954.166-.161.343-.638.167-.153.51-.953.177-.162.51-.952.166-.163.51-.952.176-.153.334-.638.176-.163.51-.952.166-.162.511-.953.167-.153.51-.953.177-.161.332-.639.176-.153.51-.952.167-.162.51-.953.177-.162.51-.952.166-.153.344-.64.166-.16h.167l.176.16v.367h.146v.323h.167l.176.153v.323h.167v.315h.167v.315h.177l.166.161v.315h.166v.324h.178v.323h.166l.176.162v.314h.168v.315h.207l.177.162v.314h.166v.324h.167v.315h.177l.166.162v.314h.187v.315h.177v.323h.167l.166.153v.323h.177v.315h.167v.314h.187l.177.163v.315h.167v.323h.165l.178.153v.323h.166v.314h.166v.325h.178l.166.152v.324h.177v.29h.166v.314h.167l.177.161v.315h.166v.323h.167v.315h.177l.166.161v.316h.167v.315h.177l.165.161v.315h.168v.323h.177v.314h.165l.167.162v.315h.176v.314h.167v.325h.167l.176.153v.323h.167v.314h.166l.177.162v.314h.094v.315h.177v.323h.166l.167.154v.297h.177v.315h.166v.314h.188l.177.162v.316h.166v.323h.166v.314h.178l.166.162v.314h.187v.333h.177l.166.162v.314h.17v.374h.176v.316h.167l.166.161v.315h.177v.315h.167v.323h.176l.167.161v.315h.167v.314h.207v.323h.167l.166.154v.323h.177v.314h.166l.166.162v.314h.178v.316h.166v.323h.166l.178.153v.325h.166v.314h.166v.314h.178l.166.162v.238h.166v.323h.177l.167.153v.375h.166v.315h.176v.314h.168l.177.162v.314h.165v.323h.168v.273h.176l.166.161v.316h.083v.374h.177v.323h.167l.166.153v.323h.177v.316h.167l.166.161v.315h.177v.315h.166v.323h.167l.177.153v.324h.166v.315h.208v.314h.177l.167.162v.314h.166v.324h.177v.314h40.49v-.314h-.176v-.324h-.167v-.314l-.166-.162h-.177v-.314h-.167v-.315h-.167v-.324l-.176-.153h-.166v-.323h-.168v-.315h-.176v-.313l-.166-.16h-.168v-.317h-.176v-.323l-.166-.153h-.177v-.323h-.115v-.314h-.166v-.315l-.178-.162h-.166v-.315h-.166v-.323h-.177v-.315l-.167-.162h-.166v-.314h-.175v-.333l-.168-.161h-.165v-.315h-.177v-.374h-.208v-.314l-.167-.162h-.177v-.316h-.166v-.314h-.167v-.323l-.177-.153h-.187v-.324h-.167v-.314l-.176-.162h-.167v-.314h-.177v-.315h-.166v-.323l-.167-.153h-.177v-.323h-.166v-.316h-.166v-.315l-.178-.161h-.166v-.324h-.166v-.314l-.178-.163h-.166v-.314h-.166v-.238h-.177v-.323l-.167-.153h-.166v-.375h-.177v-.314h-.167v-.315l-.166-.161h-.177v-.315h-.167v-.323l-.166-.153h-.177v-.323h-.166v-.315h-.178v-.333l-.166-.161h-.168v-.315h-.176v-.323h-.166v-.314l-.166-.162h-.178v-.315h-.166v-.314l-.166-.163h-.177v-.315h-.115v-.323h-.165v-.314l-.177-.162h-.168v-.314h-.165v-.317h-.177v-.324l-.188-.119h-.167v-.323h-.176v-.315h-.167v-.314l-.176-.162h-.166v-.314h-.189v-.325l-.177-.153h-.166v-.323h-.166v-.323h-.176v-.316l-.168-.161h-.187v-.315h-.177v-.323h-.166v-.314l-.167-.162h-.177v-.315h-.166v-.323l-.167-.154h-.177v-.322h-.166v-.316h-.167v-.314l-.177-.162h-.166v-.314h-.166V248h-.178v-.314l-.166-.162h-.177v-.315h-.167v-.315l-.166-.162h-.177v-.314h-.166v-.323h-.167v-.315l-.176-.161h-.166v-.29h-.168v-.314h-.176v-.323l-.167-.155h-.165v-.323h-.178v-.314l-.167-.162h-.165v-.315h-.178v-.314h-.094v-.332l-.166-.153h-.176v-.323h-.167v-.316h-.167v-.314l-.177-.162h-.187v-.314h-.176v-.324l-.167-.153h-.167v-.323h-.177v-.314h-.166v-.315l-.167-.161h-.177v-.315h-.165v-.324h-.168v-.315l-.176-.162h-.166v-.314h-.208v-.323l-.178-.153h-.166v-.325h-.166v-.313h-.178v-.316l-.166-.161h-.187v-.315h-.177v-.298h-.166v-.314l-.167-.162h-.177v-.375h-.166v-.314h-.187v-.323l-.166-.154h-.167v-.323h-.177v-.314l-.166-.162h-.167v-.316h-.177v-.314h-.166v-.332l-.167-.153h-.177v-.323h-.166v-.314h-.166v-.315l-.178-.162h-.166v-.314h-.166v-.323l-.178-.155h-.166v-.323h-.166v-.314h-.178v-.315l-.166-.161h-.166v-.315h-.177v-.326h-.167v-.314l-.176-.162h-.167v-.314h-.083v-.315l-.176-.163h-.167v-.314h-.166v-.323h-.18v-.315l-.165-.162h-.188v-.314h-.177v-.298h-.167v-.323l-.166-.153h-.177v-.324h-.166v-.315l-.167-.161h-.177v-.315h-.166v-.323h-.167v-.315l-.177-.161h-.166v-.315h-.208v-.315h-.167v-.324l-.165-.153h-.178v-.323h-.167v-.315l-.165-.161h-.2v-.315h-.165v-.314h-.167v-.323l-.177-.154h-.166v-.324h-.167v-.314h-.176v-.315l-.167-.162h-.165v-.289h-.178v-.323l-.167-.153h-.165v-.375h-.178v-.315h-.166v-.314l-.167-.162h-.176V217h-.167v-.323h-.177v-.273l-.166-.161h-.167v-.315h-.177v-.315h-.166v-.323l-.167-.154h-.177v-.323h-.166v-.315l-.167-.161h-.177v-.315h-.166v-.314h-.166v-.325l-.178-.153h-.166v-.323h-.104v-.316h-.177v-.314l-.166-.162h-.167v-.323h-.177v-.314l-.166-.162h-.187V211h-.177v-.315h-.166v-.322l-.178-.155h-.166v-.323h-.166v-.289h-.187v-.315l-.167-.161h-.166v-.375h-.177v-.323l-.167-.153h-.166v-.323h-.198v-.315h-.167v-.314l-.166-.162h-.178v-.315H274v-.324h-.166v-.323l-.178-.161h-.166v-.315h-.166v-.315l-.177-.161h-.167v-.315h-.166v-.323h-.177v-.316l-.167-.161h-.177v-.315h-.166v-.315h-.167v-.324l-.177-.152h-.165v-.324h-.168v-.315l-.176-.161h-.166v-.281h-.166v-.315h-.177v-.323l-.168-.153h-.165v-.323h-.177v-.314h-.167v-.273l-.166-.163h-.177v-.313h-.167v-.375l-.166-.161h-.177v-.315h-.167v-.315h-.177v-.323l-.166-.153h-.166v-.324h-.126v-.315h-.165v-.314l-.167-.162h-.176v-.315h-.167v-.324h-.169v-.314l-.176-.162h-.166v-.315h-.166v-.314l-.177-.162h-.167v-.314h-.166v-.323h-.218v-.316l-.168-.162h-.166v-.314h-.176v-.315h-.168v-.323l-.165-.153h-.199v-.298h-.165v-.315l-.177-.161h-.167v-.315h-.166v-.314h-.177v-.325l-.167-.153h-.166v-.323h-.177v-.314h-.166v-.332l-.168-.161h-.176v-.316h-.166v-.323l-.167-.153h-.177v-.323h-.166v-.315h-.167v-.315l-.177-.161h-.166v-.315h-.166v-.323h-.178v-.316l-.166-.161h-.166v-.315h-.178v-.323l-.166-.153h-.177v-.28h-.166v-.316h-.167v-.314l-.176-.162h-.167v-.314h-.166v-.325h-.104v-.314l-.167-.162h-.166v-.314h-.179v-.332l-.165-.161h-.167v-.315h-.198v-.375h-.166v-.316l-.167-.161h-.177v-.315h-.166v-.314h-.167v-.325l-.177-.152h-.166v-.324h-.166v-.315l-.178-.161h-.166v-.315h-.176v-.314h-.209v-.323l-.166-.153h-.177v-.325h-.166v-.314h-.167v-.315l-.177-.162h-.188v-.314h-.165v-.323l-.177-.153-.128.025zm0-125.651l-.168.161-.342.63-.168.161-.51.953-.176.162-.51.953-.167.153-.342.638-.168.162-.51.953-.176.153-.458.953-.166.161-.562.953-.166.162-.344.638-.166.153-.521.953-.166.161-.51.996-.167.162-.51.952-.177.153-.332.639-.178.161-.51.953-.166.153-.51.953-.166.162-.52.953-.167.161-.344.63-.166.162-.51.952-.166.162-.51.953-.176.153-.334.638-.176.162-.51.953-.168.161-.51.953-.176.153-.51.953-.167.163-.342.637-.168.153-.509.91-.166.162-.51.954-.177.161-.51.952-.166.153-.344.638-.166.163-.51.952-.177.153-.51.953-.167.162-.51.953-.166.161-.343.63-.167.162-.51.952-.177.162-.51.954-.166.161-.51.952-.177.153-.333.64-.177.16-.51.953-.166.153-.5.954-.166.161-.343.638-.167.153-.52.952-.167.163-.51.952-.166.162-.51.953-.176.154-.334.637-.177.162-.51.953-.165.153-.521.936-.166.153-.521.953-.166.162-.344.638-.165.153-.51.953-.168.16-.51.954-.175.162-.51.953-.167.153-.343.638-.167.161-.51.953-.177.154-.51.952-.166.162-.51.945-.166.161-.344.63-.166.161-.551.987-.177.162-.51.952-.167.163-.343.63-.166.16-.51.953-.178.162-.51.953-.166.153-.51.953-.166.162-.344.638-.166.153-.51.952-.177.162-.468.962-.166.161-.51.953-.177.153-.333.639-.177.161-.51.953-.166.153-.51.953-.167.162-.54.945-.178.161-.333.638-.177.153-.51.954-.166.161-.51.952-.177.162-.333.63-.177.162-.51.952-.167.162-.508.952-.168.154-.52.953-.167.161-.345.638-.166.153-.51.953-.166.162-.458.954-.178.161-.51.952-.166.153-.343.64-.165.16-.512.953-.176.153-.531.996-.167.153-.51.952-.166.162-.343.639-.167.153-.508.952-.178.162-.51.953-.167.162-.51.952-.176.153-.333.639-.177.162-.51.952-.167.153-.51.953-.165.162-.344.638-.166.153-.51.953-.177.162-.51.952-.167.162-.51.953-.177.162-.332.629-.178.161-.51.954-.166.162-.51.952-.166.154-.51.952-.177.162-.333.638-.177.154-.51.952-.166.162-.51.952-.178.162-.51.953-.166.153-.343.638-.167.161-.51.954-.166.153-.52.954-.166.161-.51.952-.167.162-.343.638-.167.154-.51.952-.176.162-.51.952-.166.163-.344.629-.166.162-.51.952-.177.161-.51.954-.167.153-.51.953-.166.16-.344.64-.166.153-.51.952-.177.162-.51.953-.166.162-.51.953-.176.153-.334.638-.176.162-.511.952-.167.163-.51.952-.166.153-.51.952-.177.163-.333.638-.177.153-.51.952-.165.163-.51.952-.177.162-.51.953-.167.153-.344.638-.165.161-.51.954-.168.153-.51.952-.175.162-.334.639-.176.152-.51.953-.167.162-.51.953-.177.162-.51.952-.166.162-.344.63-.166.162-.51.952-.166.161-.51.954-.177.153-.51.952-.167.162-.343.639-.166.153-.51.952-.176.162-.51.953-.168.162-.51.952-.166.153-.344.639-.176.162-.51.952-.167.153-.51.953-.165.162-.345.638-.165.161-.51.954-.177.153-.51.952-.166.162-.51.953-.177.162-.333.629-.177.161-.51.954-.167.161-.51.953-.166.153-.51.953-.177.162-.333.638-.177.153-.51.953-.166.162-.51.952-.177.162-.51.953-.167.153-.343.638-.166.161-.51.954-.167.161-.51.953-.177.153-.51.953-.166.162-.342.638-.168.153-.51.953-.176.162-.51.952-.166.162-.344.63-.166.161-.51.953-.166.161-.51.954-.177.153-.51.952-.167.162-.343.639-.167.153-.51.952-.175.162-.51.953-.168.162-.51.952-.165.163-.345.629-.176.161-.51.953-.166.161-.51.954-.166.153-.51.952-.177.162-.333.639-.177.153-.51.952-.167.162-.51.953-.177.162-.51.953-.166.152-.343.639-.167.161-.51.953-.166.153-.51.953-.177.162-.333.638-.177.162-.51.953-.166.153-.51.952-.176.163-.51.952-.168.162-.343.629-.165.161-.51.954-.168.161-.51.954-.176.152-.51.953-.166.162-.344.639-.166.152-.51.953-.177.162-.51.953-.166.162-.51.952-.167.153-.343.638-.166.162-.51.953-.178.161-.51.954-.166.153-.51.952-.177.162-.333.639-.177.153-.51.952-.166.162-.51.953-.166.162-.344.629-.177.161-.51.953-.165.161-.51.954-.168.153-.51.953-.176.162-.332.638-.177.153-.51.952-.168.161-.51.954-.176.162-.51.953-.166.162-.344.629-.166.161-.51.953-.166.162-.51.953-.177.153-.51.953-.167.162-.343.638-.166.153-.51.952-.176.161-.51.954-.168.163-.343.629-.167.161-.51.953-.166.161-.51.953-.177.153-.51.963-.165.152-.344.639-.166.161-.51.952-.177.154-.51.952-.166.161-.51.954-.168.163-.342.629-.167.161-.51.953-.177.161-.51.954-.166.152-.51.953-.177.163-.333.638-.177.153-.51.952-.166.161-.51.953-.124.12-.51.953-.176.153-.345.637-.165.162-.51.953-.168.162-.51.954-.175.153-.333.637-.177.162-.51.952-.168.153-.51.954-.176.161-.51.954-.166.161-.344.63-.166.161-.51.952-.166.163-.51.952-.177.154-.51.953-.167.162-.343.637-.166.153-.51.953-.176.161-.51.962-.168.162-.51.953-.166.162-.344.629-.166.161-.51.954-.177.162-.51.952-.166.153-.51.953-.176.162-.334.638-.176.153-.51.953-.168.162-.51.952-.166.162-.343.63-.167.162-.51.952-.177.161-.51.954-.165.153-.51.96-.177.154-.333.638-.177.161-.51.954-.166.153-.552.918-.167.163-.51.952-.177.162-.343.629-.167.162-.52.987-.167.161-.51.954-.176.153-.51.952-.166.162-.343.637-.167.155-.51.952-.166.162-.52.953-.167.162-.51.952-.166.162-.344.63-.166.161-.51.954-.176.162-.51.952-.168.153-.343.638-.167.161-.51.954-.176.153-.51.952-.167.163-.5.952-.165.162-.344.629-.166.161-.51.954-.177.161-.51.944-.167.153-.51.954-.176.161-.333.638-.178.154-.51.953-.165.161-.51.953-.167.161-.51.954-.177.161-.333.63-.177.162-.457.96-.166.162-.51.954-.178.153-.332.638-.177.161-.562.986-.167.155-.51.952-.167.161-.509.954-.177.161-.343.63-.167.161-.51.954-.166.161-.51.953-.177.153-.51.962-.166.153-.344.637-.166.162-.51.952-.167.155-.52.952-.167.161-.51.954-.166.161-.343.63-.166.161-.51.952-.177.163-.51.953-.146.11-.51.953-.177.162-.333.638-.177.153-.509.953-.166.161-.51.954-.167.161-.343.638-.167.153-.51.953-.176.162-.51.952-.167.162-.51.953-.176.153-.333.638-.177.162-.51.953-.167.153-.51.952-.166.162-.51.954-.177.161-.333.63-.177.16-.51.954-.166.162-.52.96-.177.154-.51.953-.167.162-.343.639-.166.152-.51.961-.167.154-.51.952-.177.161-.51.954-.166.161-.344.63-.166.162-.51.953-.176.161-.51.953-.167.153-.343.639-.167.161-.51.954-.166.153-.52.952-.167.162-.51.952-.166.161-.343.63-.167.162-.51.954-.18.161-.51.953-.166.153-.51.962-.177.153-.333.638-.177.161-.551.954-.167.153-.51.952-.166.161-.51.954-.177.162-.333.629-.177.161-.51.954-.166.161-.51.953-.177.153-.333.637-.177.163 278.15.152v-.313h-.182v-.315h-.167v-.324l-.166-.153h-.177v-.323h-.167v-.323h-.166v-.315l-.177-.162h-.167v-.314h-.166v-.323h-.177v-.315l-.165-.163h-.168v-.315h-.177v-.315h-.165v-.33l-.177-.155h-.084v-.323h-.167v-.314l-.176-.162h-.168v-.315h-.166v-.314h-.176v-.324l-.168-.152h-.166v-.325h-.177v-.314h-.167v-.315l-.166-.161h-.177v-.315h-.207v-.323h-.167v-.316l-.177-.16h-.166v-.316h-.167v-.323h-.177v-.315l-.166-.161h-.167v-.315h-.177v-.314l-.166-.162h-.177v-.315h-.167v-.299h-.207v-.313l-.177-.163h-.167v-.314h-.166v-.315h-.177v-.323l-.166-.153h-.167v-.323h-.177v-.315h-.166v-.331l-.167-.162h-.177v-.314h-.166v-.325h-.167v-.314l-.177-.162h-.166v-.315h-.167v-.314l-.177-.162h-.166v-.314h-.166v-.325h-.178v-.314l-.166-.162h-.177v-.314h-.167v-.315h-.166v-.323l-.177-.153h-.166v-.323h-.167v-.315h-.176v-.314l-.167-.162h-.166v-.316h-.177v-.322h-.094v-.315l-.166-.162h-.177v-.29h-.167v-.314l-.166-.161h-.177v-.315h-.188v-.323h-.167v-.316l-.177-.162h-.166v-.314h-.177v-.323h-.166v-.323l-.167-.162h-.177v-.314h-.165v-.315h-.168v-.324l-.177-.153h-.165v-.323h-.209v-.315h-.177v-.315l-.166-.161h-.167v-.315h-.177v-.323l-.166-.153h-.187v-.323h-.177v-.316h-.167v-.315l-.166-.161h-.177v-.315h-.167v-.323h-.166v-.314l-.177-.162h-.167v-.314h-.177v-.315h-.166v-.327l-.166-.153h-.178v-.298h-.166v-.314h-.166v-.315l-.178-.161h-.166v-.315h-.166v-.323l-.177-.154-199.035-.16.168-.163.342-.63.168-.161.51-.954.176-.161.51-.953.166-.153.343-.637.167-.162.51-.953.177-.163.51-.952.166-.154.51-.952.166-.161.344-.638.166-.153.51-.954.177-.161.51-.954.167-.161.51-.953.177-.153.332-.637.178-.162.51-.953.166-.153.51-.954.166-.161.344-.638.238-.179.521-.953.166-.162.51-.952.167-.161.51-.954.177-.161.333-.63.177-.162.51-.953.166-.161.51-.953.166-.153.521-.953.166-.162.344-.637.166-.155.51-.952.167-.162.51-.952.177-.161.51-.954.165-.153.344-.638.166-.161.51-.954.177-.153.51-.96.166-.154.344-.639.166-.161.51-.952.167-.155.51-.952.176-.162.51-.952.166-.163.344-.629.166-.161.51-.953.177-.161.51-.954.167-.153.51-.952.166-.162.344-.638.166-.154.51-.952.177-.161.51-.954.166-.161.51-.953.177-.153.333-.639.177-.161.509-.953.168-.161.51-.954.166-.153.343-.637.166-.162.52-.953.167-.154.51-.952.166-.161.51-.954.178-.161.333-.63.177-.162.51-.953.166-.161.51-.953.167-.153.52-.953.167-.162.343-.639.167-.151.51-.954.166-.161.51-.953.177-.161.51-.954.165-.161.345-.63.166-.162.51-.953.176-.161.511-.952.165-.154.345-.638.165-.162.51-.954.168-.153.51-.952.176-.161.51-.953.166-.161.343-.63.167-.162.51-.954.177-.161.51-.953.166-.153.51-.96.166-.154.344-.638.166-.162.51-.953.177-.154.51-.952.167-.161.51-.953.177-.161.332-.63.178-.162.51-.954.166-.161.51-.953.166-.153.344-.637.166-.162.52-.953.167-.153.51-.954.166-.162.51-.952.176-.161.333-.638.177-.153.51-.954.168-.161.51-.954.166-.161.52-.953.167-.153.342-.637.168-.162.509-.953.166-.153.51-.954.177-.161.51-.953.166-.161.344-.63.187-.154.51-.952.177-.162.51-.953.166-.152.344-.639.166-.162.51-.953.166-.153.51-.96.177-.154.51-.952.167-.163.343-.638.167-.153.51-.953.177-.162.51-.952.165-.162.51-.953.167-.152.343-.639.167-.161.51-.954.176-.153.51-.952.167-.162.51-.952.176-.163.334-.63.176-.16.51-.954.167-.162.51-.952.166-.162.343-.629.167-.163.51-.952.177-.161.51-.954.166-.153.51-.952.177-.162.333-.639.177-.152.51-.953.166-.162.51-.953.167-.162.52-.952.167-.153.343-.639.167-.162.51-.952.166-.153.51-.953.176-.162.51-.952.167-.162.344-.639.166-.153.51-.952.176-.162.51-.953.168-.162.342-.629.167-.161.51-.954.165-.161.51-.953.178-.153.51-.953.166-.162.343-.638.167-.153.51-.953.177-.162.51-.952.166-.162.51-.953.166-.153.344-.638.166-.161.51-.954.177-.161.51-.953.167-.153.343-.639.167-.161.51-.953.177-.153.51-.953.166-.162.51-.952.166-.162.344-.63.166-.162.51-.952.176-.161.51-.954.167-.153.51-.952.176-.162.333-.639.177-.153.51-.952.168-.162.508-.953.167-.162.51-.952.177-.161.343-.63.167-.162.51-.953.166-.161.51-.954.177-.153.333-.638.177-.161.51-.954.166-.153.51-.952.176-.162.511-.953.167-.162.343-.629.167-.161.51-.954.166-.161.51-.953.177-.153.51-.953.165-.162.344-.638.166-.153.51-.962.177-.153.51-.952.166-.161.51-.954.168-.162.342-.629.168-.161.51-.954.176-.161.51-.953.166-.153.343-.639.167-.161.51-.952.177-.154.51-.953.166-.162.51-.952.166-.163.344-.629.166-.161.51-.953.177-.162.51-.953.167-.161.51-.954.175-.153.334-.638.145-.195.51-.953.166-.153.51-.953.167-.161.51-.954.177-.161.343-.63.167-.161.51-.954.166-.161.51-.952.177-.155.333-.637.177-.162.51-.952.166-.155.51-.952.177-.161.51-.953.166-.161.344-.64.165-.152.51-.953.168-.161.51-.954.176-.161.51-.954.167-.152.342-.638.168-.162.51-.953.176-.152.51-.954.166-.161.51-.954.166-.161.344-.63.166-.161.51-.953.177-.162.51-.953.167-.153.343-.637.166-.163.51-.952.178-.162.51-.953.166-.154.51-.952.166-.161.344-.64.166-.152.51-.953.177-.161.51-.954.166-.161.51-.953.176-.153.334-.638.176-.162.51-.952.168-.153.51-.954.166-.161.51-.953.177-.161.342-.63.168-.162.51-.953.165-.161.51-.954.177-.161.334-.63.176-.16.51-.954.166-.162.51-.952.177-.153.51-.954.167-.161.343-.638.167-.153.51-.954.166-.161.51-.953.177-.161.51-.954.166-.153.344-.637.166-.162.51-.953.177-.153.51-.953.166-.161.51-.954.167-.161.343-.638.167-.153.51-.954.177-.161.51-.952.166-.162.344-.63.166-.162.51-.952.177-.162.51-.953.165-.153.511-.953.166-.162.344-.638.165-.153.51-.953.177-.162.51-.953.167-.161.51-.954.177-.153.332-.637.178-.162.51-.952.166-.162.51-.953.166-.153.51-.954.177-.161.344-.638.166-.153.51-.954.166-.161.51-.953.177-.161.333-.63.177-.162.51-.952.167-.162.51-.952.176-.155.51-.952.167-.161.342-.638.168-.154.51-.953.196-.161.51-.954.177-.161.51-.953.167-.161.343-.63.167-.162.51-.952.177-.162.458-.97.165-.153.345-.638.165-.162h.167l.176.162v.315h.126v.323h.166l.177.153v.323h.167v.316h.166v.314h.176l.168.162v.314h.166v.323h.176v.315h.167l.176.162v.324h.167v.315h.208l.178.161v.375h.166v.323h.166v.315h.177l.167.161v.315h.187v.323h.177v.264h.166l.167.161v.315h.177v.375h.166l.166.161v.315h.178v.323h.166v.315h.166l.176.161v.315h.168v.315h.166v.324h.176l.168.152v.324h.176v.315h.166v.314h.168l.176.162v.314h.166v.325h.166l.178.153v.323h.166v.314h.166v.315h.177l.167.163v.314h.166v.323h.177v.315h.167l.166.162v.289h.177v.314h.167l.166.162v.315h.177v.323h.167v.314h.166l.177.162v.316h.115v.314h.176v.332h.166l.168.154v.323h.176v.315h.166v.314h.188l.176.162v.315h.166v.323h.168l.177.161v.316h.165v.315h.188v.323h.176l.168.153v.323h.165v.314h.177v.315h.168l.165.162v.315h.177v.323h.166l.168.154v.323h.177v.314h.165v.315h.209l.166.161v.316h.167v.298h.177v.313h.166l.166.163v.315h.178v.314h.166v.323h.166l.178.154v.323h.166v.314h.166l.176.162v.314h.168v.316h.166v.323h.176l.168.153v.323h.165v.315h.177v.315h.166l.178.161v.316h.166v.323h.166l.178.153v.323h.166v.315h.083v.314h.177l.167.162v.299h.166v.323h.177v.315h.167l.166.161v.315h.177v.324h.165v.315h.168l.176.161v.315h.166v.323h.209l.177.161v.315h.166v.375h.167v.315h.177l.166.161v.315h.187v.314h.166v.323h.167l.177.154v.324h.166v.314h.167l.177.162v.315h.166v.314h.166v.323h.178l.166.153v.323h.166v.315h.219v.315h.166l.167.161v.315h.176v.324h.167v.315h.167l.176.161v.239h.167v.315h.166l.177.161v.374h.167v.323h.177v.314h.166l.167.163v.315h.177v.314h.166v.274h.166l.178.153v.323h.166v.374h.166l.178.163v.314h.166v.314h.166v.324h.177l.167.161v.315h.083v.315h.177v.323h.165l.168.153v.324h.177v.315h.165v.314h.188l.178.162v.315h.166v.323h.176l.167.153v.323h.166v.314h.188v.316h.166l.166.16v.316h.178v.323h.166v.315h.166l.177.162v.289h.167v.314h.166l.177.162v.315h.167v.324h.166v.315h.218l.167.161v.315h.166v.314h.177v.332h.166l.167.153v.324h.177v.316h.166v.315h.178l.166.161v.315h.166v.323h.177l.167.153v.323h.166v.315h.177v.314h.167l.166.162v.314h.177v.325h.167v.314h.166l.176.162v.314h.168v.323h.166l.176.154v.324h.167v.313h.081v.315h.177l.167.163v.314h.177v.298h.166v.315h.167l.177.161v.315h.166v.314h.167v.325h.177l.166.153v.323h.166v.314h.209l.166.162v.315h.167v.315h.177v.323h.166l.167.154v.323h.197v.314h.167v.315h.166l.177.161v.316h.165v.323h.168l.177.153v.323h.166v.315h.178v.315h.165l.167.161v.298h.176v.323h.209v.316h.166l.177.161v.315h.167v.315h.166v.323h.177l.167.153v.323h.166v.324h.177l.167.162v.314h.166v.375h.176v.323h.168l.166.153v.323h.176v.315h.167v.323h.167l.177.153v.324h.166v.315h.176l.168.162v.314h.165v.315h.177v.323h.167l.166.153v.323h.083v.315h.167v.315h.166l.177.162v.315h.166v.323h.167v.314h.199l.165.163v.313h.167v.316h.176l.167.162v.29h.177v.322h.198v.315h.166l.168.161v.315h.177v.315h.165v.272h.177l.166.153v.324h.167v.374h.177l.166.162v.314h.167v.315h.177v.323h.208l.167.154v.323h.177v.315h.166v.315h.167l.177.161v.315h.165v.323h.168v.316h.177l.165.161v.315h.167v.314h.176l.168.162v.323h.166v.315h.176v.314h.168l.176.162v.314h.166v.325h.168v.314h.176l.166.162v.289h.167v.315h.177l.166.161v.315h.166v.323h.178v.314h.166l.166.162v.316h.178v.313h.166v.333h.166l.177.153v.323h.167v.315h.166l.177.161v.315h.167v.315h.177v.323h.113l.168.154v.323h.176v.315h.166v.314h.168l.176.162v.314h.188v.323h.165v.315h.177l.168.163v.314h.165v.314h.177l.166.163v.314h.168v.323h.177v.315h.165l.168.161v.315h.176v.298h.208v.323h.167l.177.153v.375h.166v.314h.176l.168.162v.315h.165v.323h.177v.314h.168l.166.163v.315h.176v.314h.168v.323h.166l.176.153v.323h.166v.315h.168v.316h.177l.165.16v.316h.168v.323h.176l.166.153v.323h.168v.315h.176v.315h.166l.166.161v.239h.084v.323h.166v.314h.177l.166.162v.315h.167v.314h.177l.166.162v.316h.167v.323h.177v.323h.166l.167.161v.315h.177v.375h.208v.323h.166l.177.153v.327h.166v.314h.166v.315h.178l.166.161v.315h.166v.323h.178l.166.153v.324h.166v.315h.177v.315h.208l.177.161v.323h.166v.315h.167v.314h.177l.166.162v.315h.167v.324h.177l.166.153v.323h.167v.315h.177v.314h.166l.166.162v.29h.178v.322h.166v.315h.166l.178.161v.316h.166v.315h.166v.323h.176l.168.153v.323h.165v.323h.177l.168.162v.314h.176v.316h.166v.323h.166l.178.153v.323h.166v.315h.166v.314h.177l.167.162v.315h.166v.323h.177l.167.154v.323h.166v.315h.177v.314h.115l.166.162v.314h.177v.324h.166v.315h.167l.176.162v.314h.188v.315h.177v.323h.165l.168.153v.298h.176v.315h.166l.168.161v.315h.176v.323h.167v.314h.166l.177.162v.316h.167v.314h.208v.332h.177l.166.153v.323h.167v.315h.176l.167.161v.315h.165v.315h.178v.324h.167l.166.153v.323h.178v.315h.165v.314h.177l.168.162v.314h.165v.323h.177v.319h.166l.167.16v.316h.177v.314h.166l.167.162v.315h.177v.323h.166v.314h.166l.178.162v.314h.072v.298h.166v.324h.177l.167.153v.374h.166v.315h.177l.167.161v.315h.166v.315h.177v.324h.167l.177.153v.323h.166v.315h.208v.314h.177l.166.162v.314h.166v.323h.178v.315h.166l.166.162v.315h.178v.324h.166l.166.153v.323h.177v.314h.167v.315h.207l.177.161v.316h.167v.323h.166v.315h.177l.167.161v.315h.166v.315h.177l.167.161v.315h.177v.324h.166v.246h.166l.178.162v.315h.166v.374h.166v.323h.178l.166.153v.323h.166v.315h.177v.315h.167l.166.161v.315h.176v.324h.168l.166.153v.323h.176v.315h.168v.314h.166l.177.162v.315h.167v.324h.166v.314h.177l.165.162v.315h.177v.314h.167l.166.162v.314h.177v.323h.167v.316h.114l.177.162v.288h.167v.324h.166v.315h.177l.167.161v.315h.186v.315h.178v.324h.166l.166.153v.323h.178v.323h.166l.166.162v.314h.177v.315h.167v.323h.177l.166.153v.323h.167v.315h.208v.315h.165l.168.162v.315h.176v.323h.166l.167.153v.323h.177v.314h.166v.315h.167l.177.162v.314h.166v.323h.167v.316h.177l.166.162v.314h.166v.315h.178v.323h.166l.166.153v.298h.178v.314h.166l.177.162v.375h.166v.314h.167v.324h.177l.166.153v.324h.084v.315h.177v.27h.165l.167.162v.315h.176v.324h.167l.166.162v.314h.177v.315h.167v.323h.166l.177.153v.323h.167v.316h.208v.315h.176l.168.161v.315h.165v.323h.177v.314h.168l.176.162v.315h.166v.314h.166l.177.162v.314h.167v.323h.166v.316h.209l.166.162v.314h.166v.29h.178v.323h.166l.166.153v.375h.198v.314h.166l.167.162v.315h.177v.314h.166v.324h.167l.177.152v.325h.166v.314h.167v.332h.177l.166.161v.315h.176v.323h.168v.315h.166l.177.162v.314h.167v.314h.166l.177.163v.315h.165v.323h.168v.314h.176l.166.162v.316h.168v.323h.176v.314h.167l.165.162v.315h.178v.314h.167l.165.162v.314h.178v.323h.166v.315h.104l.177.162v.314h.166v.29h.177v.324h.167l.166.153v.323h.188v.315h.165l.168.161v.316h.177v.314h.165v.324h.168l.176.153v.323h.166v.314h.166v.315h.178l.166.161v.315h.166v.323h.218v.315h.168l.166.161v.315h.176v.316h.168l.176.161v.315h.166v.323h.168v.315h.176l.167.161v.29h.166v.314h.177v.324h.167l.165.153v.323h.178v.315h.166l.166.162v.314h.178v.315h.166v.331h.167l.176.153v.324h.167v.314h.167v.324h.176l.167.152v.325h.083v.314h.177v.315h.166l.178.161v.315h.166v.324h.166l.178.153v.323h.166v.315h.166v.315h.176l.168.161v.315h.166v.323h.216v.316h.167l.166.16v.316h.177v.314h.166l.167.162v.315h.197v.297h.168v.315h.165l.177.162v.373h.166v.315h.167v.324h.198l.166.153v.324h.177v.314h.166v.272h.168l.176.162v.314h.188v.375h.165l.177.153v.323h.168v.315h.165v.315h.177l.167.161v.315h.166v.323h.177v.315h.167l.167.162v.315h.176v.315h.166l.167.161v.324h.177v.315h.166v.313h.167l.177.163v.315h.166v.323h.177v.314h.167l.166.162v.315h.177v.237h.167v.324h.166l.177.153v.374h.167v.315h.166l.177.162v.314h.167v.316h.166v.323h.104l.166.153v.324h.166v.315h.177v.331h.167l.166.162v.314h.198v.323h.166l.167.154v.323h.177v.314h.166v.315h.177l.167.161v.315h.166v.324h.177v.315h.167l.166.161v.315h.177v.315h.207v.324h.168l.176.153v.323h.166v.315h.167l.177.161v.315h.167v.315h.166v.323h.177l.166.153v.323h.167v.289h.177v.324h.166l.177.152v.324h.167v.315h.166l.177.162v.314h.167v.315h.166v.324h.177l.166.153v.323h.167v.315h.178v.315h.168l.165.161v.313h.177v.324h.166v.314h.167l.177.162v.314h.166v.316h.167l.177.162v.314h.166v.323h.167v.315h.177l.166.161v.29h.177v.314h.114v.323h.167l.177.154v.323h.166v.314h.167l.176.163v.313h.188v.315h.167v.333h.176l.167.153v.323h.166v.315h.176v.315h.189l.166.16v.316h.177v.324h.166v.314h.167l.176.162v.314h.188v.315h.166l.177.161v.315h.167v.323h.176v.315h.167l.165.163v.314h.178v.323h.167v.315h.165l.178.163v.314h.166v.315h.166l.177.161v.315h.167v.309h.167v.314h.176l.167.162v.373h.167v.315h.176v.324h.167l.167.152v.324h.176v.315h.166v.271h.167l.177.162v.316h.166v.373h.178l.166.153v.324h.166v.315h.178v.315h.092l.167.161v.315h.177v.324h.166v.314h.167l.177.163v.314h.187v.315h.166l.177.161v.315h.167v.323h.166v.315h.177l.166.161v.316h.167v.315h.177v.323h.166l.167.153v.323h.177v.314h.207v.315h.177l.167.162v.297h.166v.315h.177l.167.163v.313h.166v.315h.177v.324h.167l.166.153v.323h.177v.315h.165v.331h.168l.177.162v.314h.166v.325h.167l.176.152v.324h.167v.314h.165v.315h.178l.167.162v.314h.176v.325h.167v.314h.166l.177.162v.314h.166v.315h.167v.323h.177l.166.153v.323h.167v.315h.177l.166.161v.315h.167v.316h.177v.322h.166l.167.154v.323h.177v.29h.113v.314h.168l.176.161v.315h.166v.324h.168l.176.153v.323h.188v.315h.176v.315h.166l.167.161v.315h.176v.323h.167v.315h.188l.176.161v.315h.166v.323h.168v.316h.177l.165.161v.315h.188v.314h.176l.168.162v.314h.165v.324h.177v.314h.168l.166.163v.29h.176v.314h.168v.323h.166l.177.153v.323h.165v.315h.177l.167.161v.315h.166v.316h.177v.331h.167l.166.153v.323h.177v.375h.167v.314h.166l.177.162v.315h.167v.323h.166v.316h.177l.166.16v.316h.167v.315h.177l.166.161v.315h.167v.323h.177v.314h.093l.166.162v.315h.177v.314h.167v.323h.177l.166.153v.323h.187v.316h.177l.167.162v.314h.166v.324h.177v.314h.166l.167.162v.289h.177v.315h.166v.323h.167l.177.153v.323h.166v.314h.209l.177.163v.315h.165v.314h.168v.332h.176l.166.153v.323h.166v.315h.178v.314h.167l.176.162v.316h.167v.323h.166v.314h.177l.166.162v.315h.167v.314h.177l.166.162v.314h.167v.325h.177v.314h.166l.167.162v.314h.177v.315h.166v.323h.166l.178.153v.324h.166v.315h.166l.178.162v.314h.166v.297h.177v.324h.165l.168.153v.323h.177v.315h.165v.314h.168l.176.162v.315h.167v.324h.114v.323h.177l.166.161v.315h.167v.323h.177l.166.153v.323h.188v.315h.176v.314h.166l.168.163v.315h.176v.323h.166v.314h.188l.176.163v.314h.167v.314h.177l.168.163v.28h.165v.329h.188v.314h.166l.166.162v.315h.178v.314h.166v.324h.166l.178.154v.323h.166v.323h.166v.315h.177l.167.162v.315h.166v.323h.177l.166.153v.323h.167v.314h.176v.315h.166l.168.162v.314h.176v.324h.168v.314h.176l.166.163v.314h.167v.315h.176l.167.161v.315h.083v.324h.177v.314h.167l.166.162v.315h.177v.314h.166v.324h.187l.177.161v.29h.167v.314h.166v.323h.177l.167.153v.323h.187v.315h.177l.167.162v.314h.165v.316h.178v.332h.166l.177.153v.323h.167v.375h.166v.314h.177l.166.162v.314h.167v.323h.208l.167.155v.322h.166v.315h.177v.315h.167l.166.162v.314h.198v.323h.166v.315h.166l.178.161v.315h.166v.315h.166v.323h.177l.167.153v.324h.166v.315h.177l.166.161v.315h.177v.313h.167v.323h.167l.177.153v.3h.165v.314h.168v.315h.177l.165.161v.315h.167v.323h.176l.167.153v.323h.166v.315h.177v.332h.167l.166.152v.324h.177v.315h.167v.315h.166l.177.161v.315h.167v.324h.103v.315h.177l.167.161v.315h.177v.315h.166l.167.161v.315h.188v.323h.165v.314h.167l.176.162v.315h.167v.315h.167v.322h.197l.167.154v.324h.167v.314h.177l.165.162v.314h.168v.298h.197v.323h.167l.166.154v.324h.176v.314h.168v.315h.177l.165.161v.315h.167v.323h.176v.323h.168l.165.162v.314h.177v.315h.168l.165.161v.315h.177v.324h.168V431h.165l.177.161v.315h.167v.324h.167v.315h.176l.166.161v.315h.168v.315h.176l.166.161v.281h.084v.323h.177v.315h.166l.177.161v.315h.167v.315h.166v.323h.187l.166.154v.322h.168v.324h.176v.315h.166l.168.161v.375h.196v.323h.168l.165.153v.323h.177v.315h.168v.316h.166l.176.161v.315h.166v.323h.168v.315h.177l.165.161v.315h.168v.314h.218l.166.162v.314h.176v.324h.168v.314h.166l.177.162v.316h.187v.314h.167v.323h.177l.166.153v.323h.167v.315h.176v.315h.167l.166.161v.315h.178v.324h.166l.166.153v.323h.178v.315h.166v.247h.166l.177.153v.323h.166v.374h.167v.314h.177l.165.163v.314h.178v.324h.166l.166.153v.323h.186v.316h.166v.313h.167l.177.163v.315h.166v.323h.167v.314h.177l.166.162v.314h.167v.315h.103v.323h.167l.166.153v.323h.177v.316h.166l.167.162v.314h.198v.315h.166v.323h.177l.166.153v.298h.167v.314h.177v.315h.187l.166.163v.314h.177v.323h.167l.166.153v.324h.177v.314h.187v.332h.166l.178.161v.315h.166v.324h.166v.315h.178l.166.161v.315h.166v.314h.177v.324h.167l.166.154v.323h.177v.315h.167l.176.161v.315h.167v.323h.167v.314h.177l.166.162v.315h.167v.314h.177v.323h.165l.167.153v.323h.176v.316H469l.167.162v.314h.176v.29h.167v.323h.166l.177.153v.375h.167v.314h.166v.315h.104l.166.161v.315h.168v.324h.176v.27h40.311v-.314h-.166v-.323h-.167v-.315l-.177-.161h-.166v-.315h-.167v-.273h-.177v-.323l-.166-.153h-.094v-.375h-.175v-.307h-.166v-.315l-.167-.161h-.177v-.315h-.166v-.323l-.177-.154h-.167v-.323h-.166v-.315h-.177v-.331l-.167-.162h-.166v-.316h-.207v-.323h-.168v-.314l-.166-.162h-.177v-.314h-.167v-.324h-.166v-.314l-.177-.162h-.167v-.314h-.166v-.315l-.176-.161h-.168v-.315h-.166v-.323h-.218v-.315l-.167-.162h-.163v-.315h-.167v-.315h-.166v-.323l-.177-.153h-.167V454h-.166v-.316h-.177v-.314l-.167-.162h-.166v-.29h-.177v-.321l-.167-.154h-.166v-.323h-.177v-.315h-.166v-.315l-.167-.161h-.177v-.315h-.166v-.323h-.167v-.325l-.177-.162h-.166v-.315h-.167v-.314l-.177-.162h-.166v-.314h-.177v-.323h-.167v-.315l-.166-.162h-.176v-.315h-.168v-.315h-.165v-.323l-.177-.153h-.168v-.323h-.166v-.315h-.177v-.314l-.165-.162h-.168v-.315h-.124v-.324l-.166-.153h-.167v-.323h-.177v-.315h-.166v-.323l-.167-.154h-.197v-.323h-.168v-.29h-.165v-.314l-.177-.162h-.166v-.314h-.178v-.323h-.187v-.315l-.167-.161h-.177v-.316h-.165v-.315l-.168-.161h-.176v-.315h-.188v-.323h-.166v-.315l-.176-.161h-.168v-.315h-.165v-.314h-.177v-.323l-.167-.154h-.167v-.323h-.176v-.314l-.167-.162h-.167v-.316h-.176v-.314h-.166v-.323l-.168-.153h-.176v-.298h-.166v-.316h-.178v-.315l-.166-.161h-.166v-.315h-.177v-.323h-.167v-.314l-.166-.162h-.177v-.315h-.167v-.331l-.166-.163h-.083v-.314h-.167v-.374h-.166v-.315l-.177-.161h-.167v-.315h-.166v-.315h-.198v-.324l-.166-.152h-.167v-.324h-.178v-.315h-.166v-.331l-.166-.153h-.198v-.323h-.166v-.315l-.178-.161h-.166v-.315h-.166v-.315h-.178v-.323l-.166-.154h-.166v-.323h-.177v-.315h-.167v-.314l-.166-.162h-.177v-.314h-.208v-.325l-.166-.152h-.177v-.29h-.167v-.315h-.166v-.313l-.177-.163h-.166v-.315h-.168v-.323h-.176v-.272l-.166-.162h-.167v-.314h-.177v-.377h-.166v-.324l-.178-.153h-.166v-.323h-.166v-.314l-.177-.162h-.167v-.314h-.166v-.316h-.177v-.323l-.167-.153h-.166v-.323h-.177v-.315h-.167v-.315l-.166-.161h-.177v-.315h-.166v-.323h-.167v-.315l-.177-.162h-.166v-.315h-.167v-.323l-.177-.153h-.166v-.323h-.177v-.316h-.167v-.315l-.166-.161h-.177v-.288h-.114v-.323h-.167v-.317l-.176-.162h-.167v-.314h-.167v-.315h-.176v-.323l-.167-.153h-.166v-.323h-.177v-.323l-.166-.162h-.167v-.315h-.177v-.314h-.209v-.324l-.166-.152h-.176v-.325h-.167v-.314h-.166v-.315l-.177-.163h-.188v-.313h-.177v-.324l-.166-.153h-.167v-.323h-.176v-.315h-.167v-.315l-.167-.161h-.177v-.315h-.166v-.323h-.167v-.314l-.177-.162h-.166v-.315h-.166v-.315h-.178v-.324l-.166-.153h-.166v-.297h-.178v-.315l-.166-.161h-.166v-.375h-.177v-.314h-.167v-.324l-.166-.162h-.177v-.314h-.167v-.315h-.177v-.272l-.165-.153h-.168v-.323h-.177v-.315h-.165v-.315l-.168-.161h-.177v-.315h-.093v-.324l-.166-.153h-.177v-.323h-.166v-.315h-.167v-.315l-.177-.162h-.187v-.315h-.166v-.323h-.177v-.315l-.167-.161h-.166v-.315h-.177v-.314l-.187-.188h-.168v-.314h-.176v-.324h-.166v-.315l-.177-.161h-.167v-.315h-.186v-.272h-.178v-.323l-.166-.153h-.166v-.374h-.178v-.315h-.166v-.314l-.166-.163h-.177v-.315h-.167v-.325l-.166-.153h-.177v-.323h-.167v-.315h-.166v-.331l-.177-.162h-.167v-.315h-.166v-.324h-.177v-.313l-.167-.163h-.166v-.315h-.177v-.323h-.166v-.314l-.178-.162h-.165v-.314h-.167v-.315l-.178-.162h-.165v-.315h-.167v-.322h-.176v-.316l-.168-.162h-.165v-.314h-.177v-.315h-.095v-.323l-.167-.153h-.176v-.323h-.167v-.315l-.165-.161h-.178v-.315h-.188v-.29h-.166v-.323l-.176-.154h-.168v-.323h-.177v-.314h-.166v-.315l-.167-.161h-.175v-.315h-.168v-.323h-.166v-.323l-.178-.163h-.165v-.315h-.208v-.314l-.177-.162h-.167v-.314h-.166v-.325h-.177v-.314l-.167-.162h-.187v-.314h-.177v-.315h-.166v-.323l-.167-.153h-.177v-.323h-.166v-.315h-.166v-.314l-.178-.162h-.166v-.316h-.177v-.323l-.167-.153h-.166v-.323h-.177v-.315h-.166v-.325l-.167-.153h-.177v-.323h-.166v-.29h-.167v-.314l-.177-.162h-.166v-.314h-.167v-.323h-.177v-.315l-.166-.162h-.166v-.314h-.178v-.315l-.166-.163h-.166v-.313h-.178v-.324h-.166v-.315l-.166-.161h-.177v-.315h-.093v-.315h-.178v-.324l-.166-.153h-.166v-.323h-.177v-.315l-.167-.161h-.188v-.315h-.176v-.314h-.166v-.325l-.167-.153h-.177v-.298h-.166v-.314h-.187v-.315l-.177-.161h-.166v-.315h-.168v-.323h-.177v-.315l-.165-.161h-.188v-.316h-.176v-.331l-.168-.162h-.165v-.315h-.177v-.375h-.168v-.314l-.176-.162h-.166v-.314h-.167v-.315h-.177v-.323l-.166-.162h-.166v-.314h-.178v-.316h-.166v-.323l-.166-.153h-.178v-.323h-.166v-.315l-.166-.161h-.178v-.315h-.166v-.315h-.166v-.323l-.177-.153h-.166v-.324h-.167v-.315h-.177v-.314l-.165-.162h-.168v-.238h-.176v-.324l-.168-.153h-.177v-.373h-.165v-.316h-.095v-.315l-.177-.161h-.166v-.315h-.167v-.323h-.177v-.272l-.165-.162h-.188v-.315h-.178v-.374h-.166v-.323l-.166-.154h-.178v-.323h-.165v-.314l-.167-.162h-.177v-.314h-.166v-.315h-.167v-.323l-.176-.153h-.167v-.324h-.208v-.315h-.166v-.315l-.167-.161h-.177v-.315h-.166v-.324h-.167v-.315l-.177-.161h-.166v-.315h-.167v-.323l-.177-.153h-.166v-.323h-.166v-.315h-.176v-.314l-.168-.162h-.166v-.29h-.178v-.325h-.166v-.314l-.166-.162h-.178v-.314h-.165v-.315l-.167-.163h-.177v-.314h-.166v-.323h-.177v-.324l-.166-.161h-.166v-.315h-.178v-.316h-.166v-.321l-.168-.155h-.176v-.323h-.166v-.314h-.104v-.315l-.177-.162h-.166v-.314h-.166v-.323l-.178-.153h-.166v-.325h-.188v-.313h-.176v-.315l-.168-.162h-.165v-.315h-.177v-.324h-.166v-.315l-.167-.161h-.177v-.315h-.166v-.315h-.177v-.323l-.167-.153h-.166v-.298h-.207v-.314l-.168-.162h-.166v-.314h-.176v-.315h-.168v-.323l-.165-.162h-.2v-.314h-.167v-.315h-.166v-.332l-.177-.154h-.166v-.323h-.167v-.314h-.198v-.316l-.166-.162h-.166v-.314h-.177v-.323l-.167-.153h-.166v-.323h-.177v-.315h-.167v-.315l-.177-.161h-.166v-.315h-.167v-.323h-.177v-.315l-.166-.161h-.166v-.315h-.178v-.316l-.166-.161h-.166v-.315h-.178v-.323h-.166v-.314l-.166-.162h-.178v-.315h-.166v-.298h-.166v-.324l-.177-.153h-.167v-.373h-.083v-.316h-.177v-.315l-.166-.161h-.167v-.315h-.176v-.324l-.167-.153h-.187v-.323h-.17v-.316h-.168v-.315l-.176-.161h-.166v-.315h-.166v-.324h-.198v-.314l-.168-.162h-.166v-.315h-.176v-.315h-.168v-.323l-.165-.161h-.199v-.315h-.166v-.314l-.166-.162h-.176v-.315h-.168v-.323h-.166v-.315l-.198-.137h-.166v-.314h-.176v-.315h-.168v-.323l-.166-.153h-.177v-.323h-.166v-.274l-.167-.161h-.177v-.315h-.165v-.374h-.168v-.323l-.176-.154h-.166v-.322h-.168v-.316h-.176v-.314l-.166-.162h-.167v-.314h-.177v-.324h-.167v-.323l-.166-.162h-.177v-.315h-.166v-.315l-.166-.161h-.178v-.315h-.166v-.323h-.177v-.314l-.167-.162h-.166v-.315h-.176v-.315h-.167v-.323l-.167-.154h-.103v-.323h-.167v-.314h-.166v-.315l-.177-.161h-.167v-.315h-.166v-.323l-.177-.153h-.167v-.323h-.166v-.315h-.177v-.324l-.167-.153h-.166v-.323h-.218v-.29h-.169v-.314l-.166-.163h-.176v-.315h-.168v-.323l-.176-.154h-.188v-.322h-.166v-.316h-.176v-.314l-.168-.162h-.166v-.314h-.176v-.323h-.188v-.315l-.166-.162h-.178v-.314h-.166v-.315h-.166v-.324l-.178-.152h-.166v-.324h-.166V309l-.177-.163h-.167v-.313h-.166v-.315h-.177v-.324l-.167-.153h-.166v-.298h-.177v-.313h-.167v-.316l-.177-.161h-.166v-.315h-.167v-.323h-.176v-.315l-.167-.161h-.166v-.315h-.176v-.333l-.168-.161h-.166v-.315h-.084v-.323h-.166v-.314l-.166-.162h-.177v-.315h-.166v-.314h-.167v-.323l-.176-.163h-.168v-.313h-.166v-.315l-.176-.163h-.168v-.314h-.165v-.325h-.22v-.314l-.165-.162h-.178v-.315h-.165v-.314h-.167v-.323l-.178-.153h-.186v-.323h-.167v-.315h-.177v-.315l-.166-.161h-.167v-.29h-.177v-.322l-.166-.154h-.167v-.374h-.177v-.315h-.166v-.315l-.167-.161h-.177v-.315h-.165v-.323h-.167v-.272l-.176-.162h-.167v-.315h-.177v-.374h-.166v-.323l-.167-.154h-.177v-.325h-.166v-.315l-.167-.161h-.177v-.315H405v-.316h-.166v-.322l-.178-.154h-.166v-.323h-.166v-.314h-.178v-.315l-.166-.162h-.166v-.314h-.177v-.323h-.167v-.315l-.166-.161h-.177v-.315h-.167v-.324l-.166-.153h-.125v-.324h-.166v-.315h-.178v-.315l-.166-.161h-.167v-.289h-.177v-.324h-.187v-.314l-.167-.162h-.176v-.315h-.167v-.314l-.166-.163h-.178v-.315h-.187v-.323h-.167v-.323l-.177-.161h-.166v-.315h-.167v-.315h-.177v-.323l-.166-.153h-.166v-.323h-.178v-.314h-.165v-.316l-.167-.162h-.178v-.314h-.207v-.323l-.177-.153h-.166v-.324h-.167v-.315h-.177v-.315l-.166-.162h-.167v-.314h-.177v-.324h-.165v-.315l-.168-.162h-.177v-.314h-.165v-.315h-.168v-.323l-.176-.153h-.167v-.298h-.166v-.314l-.176-.162h-.168v-.315h-.165v-.314h-.177v-.323l-.167-.153h-.166v-.323h-.177v-.315h-.167v-.333l-.177-.153h-.072v-.323h-.168v-.316l-.176-.16h-.166v-.316h-.168v-.314h-.176v-.323l-.166-.154h-.167v-.323h-.176v-.314h-.167v-.315l-.166-.161h-.177v-.315h-.208v-.323h-.167v-.315l-.177-.161h-.166v-.315h-.167v-.316l-.176-.161h-.188v-.315h-.167v-.324h-.178v-.314l-.165-.162h-.177v-.315h-.167v-.298h-.188v-.324l-.177-.153h-.166v-.374h-.167v-.314h-.176v-.316l-.167-.162h-.165v-.314h-.178v-.323l-.166-.153h-.166v-.324h-.177v-.314h-.167v-.315l-.166-.161h-.177v-.315h-.168v-.324h-.165v-.315l-.177-.161h-.168v-.315h-.176v-.323l-.166-.154h-.167v-.323h-.177v-.315h-.166v-.315l-.166-.161h-.178v-.238h-.167v-.324h-.165v-.315l-.178-.161h-.166v-.315h-.166v-.314h-.177v-.323l-.167-.153h-.166v-.323h-.177v-.324l-.167-.161h-.166v-.315h-.177v-.375h-.115v-.323l-.166-.153h-.176v-.324h-.168v-.315h-.176v-.313l-.166-.163h-.188v-.314h-.176v-.325h-.168v-.324l-.166-.161h-.177v-.315h-.167v-.315l-.165-.161h-.177v-.315h-.166v-.323h-.167v-.315l-.177-.162h-.166v-.314h-.209v-.316h-.177v-.323l-.166-.153h-.167v-.323h-.177v-.314h-.165v-.315l-.167-.162h-.178v-.315h-.165v-.323l-.177-.154h-.166v-.323h-.168v-.314h-.176v-.323l-.166-.153h-.168v-.325h-.176v-.289h-.166v-.315l-.167-.161h-.177v-.315h-.166v-.323l-.166-.153h-.178v-.323h-.166v-.315h-.166v-.314l-.178-.162h-.072v-.314h-.169v-.325h-.176v-.314l-.166-.162h-.166v-.314h-.178v-.315h-.188v-.323l-.176-.153h-.166v-.324h-.166v-.314l-.178-.163h-.167v-.314h-.187v-.315h-.177v-.323l-.165-.153h-.168v-.298h-.177v-.314h-.165v-.315l-.168-.161h-.176v-.315h-.167v-.324h-.167v-.315l-.176-.162h-.167v-.314h-.208v-.332l-.177-.161h-.166v-.315h-.166v-.324h-.178v-.315l-.166-.161h-.187v-.315h-.167v-.314h-.166v-.324l-.177-.161h-.166v-.315h-.166v-.314l-.178-.162h-.166v-.314h-.166v-.325h-.178v-.314l-.167-.162h-.165v-.314h-.177v-.315h-.167v-.323l-.166-.153h-.177v-.323h-.167v-.316h-.166v-.315l-.177-.161h-.167v-.29h-.166v-.323l-.177-.153h-.167v-.375h-.177v-.314h-.166v-.315l-.166-.161h-.178v-.315h-.166v-.323h-.166v-.273l-.178-.161h-.166v-.315h-.104v-.314h-.177v-.325l-.166-.153h-.166v-.323h-.178v-.314l-.166-.162h-.187v-.315h-.177v-.314h-.166v-.326l-.167-.153h-.177v-.323h-.166v-.314h-.19v-.316l-.167-.16h-.166v-.316h-.178v-.323l-.166-.154h-.166v-.323h-.198v-.314h-.166v-.323l-.167-.153h-.177v-.325h-.168v-.289h-.166v-.315l-.176-.161h-.167v-.374h-.167v-.323h-.176v-.316l-.167-.161h-.167v-.315h-.177v-.314l-.166-.162h-.167v-.315h-.177v-.324h-.166v-.323l-.176-.161h-.168v-.315h-.165v-.315h-.177v-.324l-.166-.153h-.168v-.323h-.176v-.315h-.166v-.314l-.167-.162h-.177v-.315h-.166v-.323l-.167-.153h-.177v-.324h-.166v-.315h-.105v-.314l-.176-.162h-.166v-.314h-.167v-.323h-.177v-.315l-.166-.162h-.188v-.315h-.177v-.315h-.167v-.323l-.177-.153h-.166v-.298h-.167v-.315l-.177-.161h-.166v-.315h-.167v-.314h-.177v-.323l-.165-.162h-.168v-.316h-.207v-.314h-.166v-.332l-.168-.153h-.176v-.323h-.166v-.315l-.167-.162h-.198v-.315h-.166v-.313h-.167v-.325l-.176-.153h-.166v-.323h-.168v-.314h-.176v-.315l-.166-.162h-.178v-.314h-.166v-.324h-.167v-.315l-.176-.162h-.167v-.315h-.167v-.315l-.176-.162h-.167v-.314h-.166v-.323h-.177v-.315l-.167-.161h-.166v-.315h-.177v-.298h-.167v-.324l-.166-.153h-.177v-.323h-.166v-.315h-.084v-.314l-.177-.162h-.166v-.315h-.176v-.323l-.168-.153h-.166v-.324h-.187v-.315h-.166v-.314l-.167-.162h-.177v-.314h-.166v-.324h-.167v-.315l-.177-.162h-.166v-.315h-.166v-.323l-.178-.153h-.166v-.323h-.166v-.314h-.219v-.316l-.166-.162h-.166v-.288h-.177v-.324h-.167v-.315l-.166-.161h-.199v-.315h-.166v-.314h-.178v-.324l-.166-.153h-.166v-.324h-.178v-.323l-.166-.161h-.166v-.315h-.177v-.375h-.167v-.323l-.166-.153h-.176v-.323h-.168v-.316h-.166v-.315l-.176-.161h-.168v-.315h-.166v-.323h-.177v-.314l-.166-.162h-.167v-.315h-.177v-.314l-.166-.163h-.167v-.315h-.177v-.323h-.166v-.314l-.176-.162h-.168v-.314h-.166v-.315h-.177v-.324l-.167-.153h-.166v-.324h-.104v-.314l-.166-.162h-.166v-.289h-.178v-.315h-.166v-.323l-.166-.153h-.198v-.324h-.166v-.315h-.167v-.272l-.177-.153h-.166v-.323h-.167v-.375h-.197v-.315l-.167-.161h-.166v-.315h-.177v-.323l-.167-.153h-.177v-.323h-.187v-.316h-.166v-.315l-.177-.161h-.167v-.315h-.166v-.323h-.177v-.314l-.166-.162h-.167v-.315h-.177v-.314h-.166v-.324l-.167-.154h-.177v-.323h-.166v-.314l-.167-.162h-.177v-.314h-.166v-.315h-.167v-.324l-.177-.153h-.165v-.298h-.167v-.315h-.178v-.314l-.165-.162h-.177v-.314h-.166v-.324l-.167-.153h-.177v-.323h-.166v-.316h-.167v-.331l-.177-.162h-.166v-.314h-.167v-.323h-.104v-.315l-.166-.163h-.167v-.314h-.177v-.315h-.167v-.323l-.167-.161h-.197v-.315h-.167v-.315l-.167-.161h-.177v-.315h-.166v-.323h-.167v-.316l-.197-.12h-.167v-.314h-.177v-.314h-.165v-.323l-.167-.153h-.178v-.324h-.187v-.315h-.166v-.315l-.177-.162h-.166v-.331h-.167v-.323l-.177-.153h-.187v-.375h-.166v-.315h-.177v-.314l-.167-.162h-.166v-.314h-.177v-.324h-.167v-.272l-.166-.161h-.177v-.315h-.167v-.316h-.177v-.323l-.166-.153h-.166v-.323h-.178v-.315l-.166-.161h-.166v-.315h-.178v-.315h-.166v-.323l-.166-.154h-.177v-.323h-.167v-.315h-.166v-.314l-.177-.162h-.167v-.314h-.166v-.323l-.177-.154h-.167v-.323h-.166v-.315h-.176v-.323l-.168-.154h-.166v-.323h-.104v-.289h-.166v-.315l-.177-.161h-.166v-.375h-.167v-.323h-.177v-.315l-.166-.161h-.167v-.315h-.177v-.314l-.166-.162h-.167v-.315h-.176v-.324h-.208v-.323l-.166-.161h-.178v-.315h-.166v-.315h-.166v-.323l-.178-.153h-.186v-.324h-.167v-.315h-.177v-.314l-.166-.162h-.167v-.315h-.177v-.323l-.166-.153h-.177v-.325h-.167v-.315h-.166v-.314l-.177-.162h-.167v-.315h-.166v-.323h-.177v-.314l-.167-.162h-.166v-.314h-.177v-.239l-.167-.162h-.166v-.314h-.176v-.375h-.167v-.315l-.167-.161h-.176v-.315h-.167v-.314h-.167v-.325l-.177-.161H315v-.315h-.167v-.315h-.177v-.331l-.165-.153h-.177v-.323h-.094v-.316l-.167-.162h-.176v-.314h-.168v-.315h-.167v-.323l-.176-.153h-.188v-.323h-.166v-.315h-.177v-.315l-.167-.162h-.166v-.315h-.177v-.323h-.187v-.314l-.166-.162h-.178v-.314h-.166v-.315l-.166-.163h-.177v-.314h-.187v-.323h-.168v-.315l-.176-.162h-.166v-.314h-.177v-.298h-.167v-.323l-.166-.153h-.177v-.324h-.167v-.315l-.166-.162h-.177v-.314h-.167v-.315h-.166v-.323l-.177-.153h-.166v-.323h-.167v-.315h-.177v-.314l-.166-.162h-.167v-.314h-.177v-.325h-.166v-.316l-.167-.161h-.177v-.315h-.166v-.323l-.176-.153h-.168v-.323h-.165v-.315h-.178v-.314l-.167-.162h-.166v-.29h-.177v-.323h-.167v-.315l-.166-.161h-.177v-.315h-.166v-.315h-.167v-.323l-.176-.154h-.114v-.323h-.167v-.323l-.177-.162h-.166v-.314h-.167v-.315H304v-.324l-.166-.153h-.168v-.323h-.176v-.315h-.166v-.315l-.177-.161h-.167v-.315h-.208v-.323h-.176v-.314l-.168-.162h-.166v-.333h-.176v-.314l-.168-.162h-.186v-.314h-.178v-.323h-.166v-.315l-.166-.162h-.178v-.314h-.166v-.316h-.187v-.323l-.177-.153h-.166v-.281h-.167v-.315l-.177-.161h-.166v-.375h-.167v-.315h-.177v-.323l-.166-.153h-.177v-.323h-.167v-.315h-.166v-.273l-.177-.152h-.167v-.358h-.166v-.34h-.177v-.315l-.166-.161h-.167v-.29h-.177v-.324l-.166-.153h-.167v-.323h-.177v-.315h-.166v-.314l-.167-.162h-.177v-.314h-.072v-.325h-.166v-.314l-.178-.162h-.166v-.314h-.166v-.315h-.178v-.323l-.166-.153h-.177v-.323h-.167v-.315l-.166-.161h-.177v-.316h-.165v-.315h-.209v-.323l-.177-.153h-.166v-.323h-.167v-.315h-.177v-.316l-.166-.161h-.187v-.315h-.177v-.323l-.167-.153h-.166v-.323h-.177v-.315h-.167v-.332l-.166-.162h-.177v-.314h-.166v-.323h-.167v-.315l-.177-.162h-.166v-.314h-.209v-.324h-.165v-.298l-.168-.162h-.176v-.314h-.166v-.315l-.166-.162h-.177v-.314h-.167v-.323h-.166v-.315l-.177-.163h-.167v-.314h-.166v-.315h-.177v-.323l-.167-.153h-.166v-.323h-.177v-.315h-.167v-.315l-.166-.162h-.177v-.306h-.166v-.323l-.178-.153h-.166v-.323h-.166v-.316h-.178v-.315l-.166-.161h-.083v-.315h-.176v-.323h-.166v-.323l-.168-.163h-.177v-.314h-.167v-.314l-.167-.163h-.176v-.314h-.168v-.323h-.166v-.315l-.176-.163h-.168v-.314h-.207v-.315h-.177v-.323l-.166-.153h-.167v-.323h-.177v-.315h-.166v-.314l-.187-.128h-.168v-.315h-.165v-.324l-.177-.153h-.168v-.323h-.165v-.315h-.199v-.358l-.165-.153h-.167v-.323h-.176v-.288h-.168V94.4l-.165-.162h-.177v-.348h-.168v-.324h-.165v-.315l-.177-.162h-.168v-.314h-.166v-.315l-.176-.161h-.168v-.281h-.165v-.323h-.177v-.315l-.166-.161h-.178v-.315h-.166v-.315h-.166v-.324l-.177-.153h-.167v-.323h-.166v-.315h-.177v-.314l-.167-.162h-.083v-.315h-.177v-.324l-.166-.153h-.167v-.323h-.177v-.315h-.166v-.314l-.188-.171h-.176v-.315h-.167v-.323h-.166v-.315l-.177-.161h-.167v-.315h-.187v-.272l-.177-.162h-.166v-.35h-.177v-.34h-.167v-.314l-.166-.161h-.187v-.315h-.167v-.315h-.167v-.324l-.176-.161h-.167v-.315h-.165v-.315h-.2v-.331l-.166-.153h-.166v-.323h-.176v-.29l-.168-.161h-.166v-.315h-.198v-.314h-.166v-.325l-.166-.153h-.178v-.323h-.166v-.316h-.166v-.314l-.177-.162h-.167v-.314h-.177v-.324h-.166v-.314l-.167-.162h-.177v-.314h-.166v-.315l-.167-.161h-.177v-.315h-.166v-.324h-.167v-.315l-.177-.162h-.166v-.314h-.166v-.323h-.178v-.324l-.166-.154h-.166v-.323h-.178v-.306l-.166-.161h-.083v-.315h-.177v-.315h-.165v-.323l-.178-.153h-.166v-.324h-.166v-.314h-.187v-.315l-.168-.162h-.166v-.315h-.177v-.323h-.167v-.315l-.166-.161h-.198v-.315h-.166v-.324l-.166-.153h-.178v-.323h-.166v-.315h-.166v-.315l-.176-.161h-.168v-.298h-.166v-.34h-.177v-.315l-.167-.161h-.166v-.315h-.218v-.315h-.167v-.324l-.177-.153h-.166v-.323h-.167v-.306l-.177-.162h-.166v-.315h-.166v-.314h-.176V64.7l-.168-.152h-.166v-.324h-.176v-.315h-.168v-.315l-.166-.161h-.176v-.315h-.168v-.323l-.165-.153h-.177v-.323h-.168v-.315h-.166v-.315l-.176-.162h-.166v-.314h-.168v-.332h-.176v-.315l-.166-.162h-.178v-.314h-.167v-.315h-.165v-.323l-.177-.154h-.167v-.289h-.166v-.349l-.105-.161h-.165v-.34h-.168v-.29h-.178v-.323l-.165-.162h-.168v-.314h-.196v-.315h-.168v-.298l-.166-.153h-.176v-.349h-.168v-.348h-.165v-.281l-.199-.162h-.166v-.315h-.167v-.323l-.176-.153h-.167v-.324h-.177v-.314h-.187v-.315l-.166-.161h-.178v-.316h-.166v-.322h-.166v-.316l-.157-.161h-.207v-.315h-.167v-.314l-.136-.162-.171-.001z" stroke="null"/></g></svg>