<svg width="481" height="411" viewBox="0 0 481 411" fill="none" xmlns="http://www.w3.org/2000/svg"><path fill="#fff" d="M0 0h481v411H0z"/><path fill-rule="evenodd" clip-rule="evenodd" d="M77.258 268.667c-13.859 22.997-22.61 48.987-26.13 77.594-1.486 12.074-.445 48.247 1.442 50.135.098.099 23.75.137 52.561.085l52.382-.093-38.55-66.127c-21.201-36.37-38.644-66.127-38.761-66.127-.118 0-1.442 2.04-2.944 4.533zm156.587 29.173c-46.806 4.378-75.809 53.935-56.755 96.975l.778 1.758H302.763l.777-1.758c21.306-48.126-17.322-101.873-69.695-96.975z" fill="#3495B5"/><path fill-rule="evenodd" clip-rule="evenodd" d="M0 411V0h481v411H0zm429.469-65.664c-11.313-89.953-78.678-157.136-168.45-167.991-4.686-.567-30.685-1.079-33.828-.668-.611.081-3.189.331-5.731.557-106.907 9.509-185.166 110.064-169.407 217.674l.271 1.849 60.444.013c33.244.007 57.286-.076 53.427-.185l-7.015-.197-1.055-3.096c-8.069-23.694-4.123-52.818 10.031-74.037 37.178-55.733 120.273-50.528 149.647 9.374 9.949 20.29 11.706 46.163 4.447 65.463l-.934 2.481H428.379l.615-5.087c1.261-10.424 1.43-14.175 1.255-27.795-.121-9.373-.361-15.027-.78-18.355zm-120.585 30.039c5.042-38.751-23.386-73.941-62.653-77.552-43.468-3.998-80.128 34.172-74.485 77.552.83 6.374 3.71 16.704 5.69 20.406l.423.792h124.912l.424-.792c1.979-3.702 4.859-14.032 5.689-20.406zM291.5 56H192v.05c-11.174.733-20 9.609-20 20.45s8.826 19.717 20 20.45V97h100v-.005c11.643-.254 21-9.333 21-20.495s-9.357-20.241-21-20.495V56h-.5z" fill="#ECECEC"/><path fill-rule="evenodd" clip-rule="evenodd" d="M229.964 176.678c-.915.076-3.744.318-6.286.536-56.202 4.812-107.614 34.778-139.935 81.564l-3.5 5.065.896 1.533 38.631 66.272c28.045 48.114 37.926 64.77 38.472 64.858.897.144.899.282-.022-2.373-16.229-46.772 12.28-98.974 60.784-111.298 10.95-2.782 2.775-2.559 101.804-2.78l88.812-.198-2.922-5.253c-30.59-54.989-84.517-90.497-147.712-97.259-4.847-.519-25.219-.987-29.022-.667z" fill="#DA4C40"/><path fill-rule="evenodd" clip-rule="evenodd" d="M249.928 280.631c55.081 7.012 90.298 62.158 72.483 113.502-.418 1.202-.758 2.243-.758 2.312 0 .07 23.944.128 53.21.128h53.209l.21-1.018c2.077-10.071 2.688-36.016 1.156-49.109-2.632-22.486-8.207-42.098-17.587-61.864l-2.153-4.54-81.827.047c-70.109.041-81.27.119-77.943.542z" fill="#FBCB44"/><path fill-rule="evenodd" clip-rule="evenodd" d="M228.951 176.725c.563.086 1.394.083 1.85-.004.454-.088-.006-.158-1.023-.156-1.017.004-1.388.075-.827.16zm21.074 0c.563.086 1.394.083 1.848-.004.456-.088-.005-.158-1.021-.156-1.017.004-1.389.075-.827.16zm-26.254.36c.356.093.938.093 1.294 0 .356-.094.065-.17-.647-.17s-1.003.076-.647.17zm31.795 0c.356.093.938.093 1.294 0 .356-.094.065-.17-.647-.17s-1.003.076-.647.17zm-98.067 18.057c-.509.291-.758.528-.555.528.203 0 .786-.237 1.294-.528.509-.291.758-.528.555-.528-.204 0-.786.237-1.294.528zm-47.706 33.016l-2.021 2.127 2.126-2.021c1.975-1.879 2.295-2.233 2.021-2.233-.058 0-1.015.958-2.126 2.127zm260.477-.277c1.002 1.017 1.904 1.85 2.006 1.85.101 0-.635-.833-1.637-1.85-1-1.017-1.903-1.85-2.004-1.85-.102 0 .633.833 1.635 1.85zm-268.981 8.786l-2.02 2.128 2.126-2.023c1.974-1.878 2.294-2.232 2.02-2.232-.058 0-1.014.958-2.126 2.127zm277.854.093c1.002 1.017 1.904 1.849 2.006 1.849.101 0-.635-.832-1.636-1.849-1.001-1.018-1.904-1.851-2.006-1.851-.101 0 .635.833 1.636 1.851zm-281.746 4.162l-1.086 1.202 1.2-1.087c1.122-1.013 1.373-1.318 1.087-1.318-.063 0-.604.541-1.201 1.203zm139.498 39.387c.661.083 1.742.083 2.404 0 .66-.081.12-.149-1.202-.149s-1.862.068-1.202.149zm5.186.005c.87.078 2.201.077 2.957-.002.758-.081.046-.145-1.58-.143-1.627.002-2.246.067-1.377.145zm-60.2 22.571l-1.275 1.388 1.386-1.275c1.291-1.186 1.556-1.5 1.275-1.5-.063 0-.687.625-1.386 1.387zm-5.735 5.735l-1.086 1.202 1.202-1.087c1.12-1.013 1.371-1.317 1.086-1.317-.063 0-.605.54-1.202 1.202zm253.918 45.78c0 .712.077 1.004.17.647a3.036 3.036 0 000-1.294c-.093-.356-.17-.065-.17.647zm-276.162 7.399c0 .915.072 1.29.161.832a5.283 5.283 0 000-1.665c-.089-.457-.161-.083-.161.833zm-103.858 4.809c0 1.932.063 2.723.14 1.757.076-.967.076-2.548 0-3.515-.077-.966-.14-.176-.14 1.758zm103.858 4.809c0 .916.072 1.29.161.832a5.277 5.277 0 000-1.664c-.089-.459-.161-.083-.161.832zm-101.62 24.868c.076.381 11.895.491 60.482.566 33.213.052 60.303.008 60.199-.096-.105-.105-27.237-.188-60.296-.184-40.833.003-60.165-.117-60.293-.376-.104-.209-.146-.168-.093.09z" fill="#D9B99D"/></svg>